<svg width="93" height="24" viewBox="0 0 93 24" fill="none" xmlns="http://www.w3.org/2000/svg">
<path d="M6.03125 19.2C5.07125 19.2 4.20458 19 3.43125 18.6C2.65792 18.2 2.05125 17.6333 1.61125 16.9C1.17125 16.1533 0.95125 15.2933 0.95125 14.32C0.95125 13.1733 1.29792 12.1267 1.99125 11.18L7.27125 4.04H9.73125L5.63125 9.56C5.89792 9.50667 6.21125 9.48 6.57125 9.48C7.43792 9.54667 8.21125 9.79333 8.89125 10.22C9.57125 10.6333 10.1046 11.1933 10.4913 11.9C10.8779 12.6067 11.0713 13.4133 11.0713 14.32C11.0713 15.2933 10.8513 16.1533 10.4113 16.9C9.98458 17.6333 9.38458 18.2 8.61125 18.6C7.85125 19 6.99125 19.2 6.03125 19.2ZM6.01125 17.34C6.89125 17.34 7.60458 17.06 8.15125 16.5C8.69792 15.94 8.97125 15.1867 8.97125 14.24C8.97125 13.2933 8.69792 12.5467 8.15125 12C7.60458 11.44 6.89125 11.16 6.01125 11.16C4.99792 11.16 4.21125 11.5133 3.65125 12.22C3.25125 12.74 3.05125 13.4133 3.05125 14.24C3.05125 15.1867 3.32458 15.94 3.87125 16.5C4.41792 17.06 5.13125 17.34 6.01125 17.34ZM17.8258 3.84C18.7858 3.84 19.6524 4.04 20.4258 4.44C21.1991 4.84 21.8058 5.41333 22.2458 6.16C22.6858 6.89333 22.9058 7.74667 22.9058 8.72C22.9058 9.86667 22.5591 10.9133 21.8658 11.86L16.5858 19H14.1258L18.2258 13.48C17.9591 13.5333 17.6458 13.56 17.2858 13.56C16.4191 13.4933 15.6458 13.2533 14.9658 12.84C14.2858 12.4267 13.7524 11.8667 13.3658 11.16C12.9791 10.44 12.7858 9.62667 12.7858 8.72C12.7858 7.74667 12.9991 6.89333 13.4258 6.16C13.8658 5.41333 14.4658 4.84 15.2258 4.44C15.9991 4.04 16.8658 3.84 17.8258 3.84ZM17.8458 11.88C18.8591 11.88 19.6458 11.5267 20.2058 10.82C20.6058 10.3 20.8058 9.62667 20.8058 8.8C20.8058 7.85333 20.5324 7.1 19.9858 6.54C19.4391 5.98 18.7258 5.7 17.8458 5.7C16.9658 5.7 16.2524 5.98 15.7058 6.54C15.1591 7.1 14.8858 7.85333 14.8858 8.8C14.8858 9.74667 15.1591 10.5 15.7058 11.06C16.2524 11.6067 16.9658 11.88 17.8458 11.88ZM24.7403 21.16C25.4203 20.6533 25.8136 19.9933 25.9203 19.18C25.5736 19.1533 25.2803 19.02 25.0403 18.78C24.8136 18.54 24.7003 18.2467 24.7003 17.9C24.7003 17.54 24.8203 17.24 25.0603 17C25.3003 16.7467 25.6003 16.62 25.9603 16.62C26.3336 16.62 26.627 16.7533 26.8403 17.02C27.0536 17.2867 27.1603 17.64 27.1603 18.08C27.1336 19.8133 26.327 21.1267 24.7403 22.02V21.16ZM33.8591 9.76C34.7257 9.76 35.4991 9.94667 36.1791 10.32C36.8591 10.68 37.3924 11.2133 37.7791 11.92C38.1657 12.6133 38.3591 13.44 38.3591 14.4C38.3591 15.3467 38.1657 16.1867 37.7791 16.92C37.4057 17.64 36.8591 18.2 36.1391 18.6C35.4191 19 34.5724 19.2 33.5991 19.2C32.1724 19.2 31.0524 18.82 30.2391 18.06C29.4257 17.3 28.9791 16.2533 28.8991 14.92L30.9591 14.8C31.0391 15.6 31.2991 16.2267 31.7391 16.68C32.1924 17.12 32.8124 17.34 33.5991 17.34C34.4524 17.34 35.1124 17.0733 35.5791 16.54C36.0457 16.0067 36.2791 15.3067 36.2791 14.44C36.2791 13.5733 36.0391 12.8867 35.5591 12.38C35.0924 11.86 34.4591 11.6 33.6591 11.6C32.8057 11.6 32.0324 11.8733 31.3391 12.42H29.4191V4.04H37.7791V5.88H31.4791V10.44C32.1857 9.98667 32.9791 9.76 33.8591 9.76ZM45.7295 3.84C46.8229 3.84 47.7762 4.14 48.5895 4.74C49.4162 5.32667 50.0495 6.2 50.4895 7.36C50.9429 8.50667 51.1695 9.89333 51.1695 11.52C51.1695 13.1333 50.9429 14.52 50.4895 15.68C50.0495 16.8267 49.4162 17.7 48.5895 18.3C47.7762 18.9 46.8229 19.2 45.7295 19.2C44.6362 19.2 43.6762 18.9 42.8495 18.3C42.0362 17.7 41.4029 16.8267 40.9495 15.68C40.5095 14.5333 40.2895 13.1467 40.2895 11.52C40.2895 9.89333 40.5095 8.50667 40.9495 7.36C41.4029 6.2 42.0362 5.32667 42.8495 4.74C43.6762 4.14 44.6362 3.84 45.7295 3.84ZM45.7095 5.7C44.6295 5.7 43.8095 6.19333 43.2495 7.18C42.6895 8.16667 42.4095 9.61333 42.4095 11.52C42.4095 13.4267 42.6895 14.8733 43.2495 15.86C43.8095 16.8467 44.6295 17.34 45.7095 17.34C46.8162 17.34 47.6495 16.8467 48.2095 15.86C48.7829 14.8733 49.0695 13.4267 49.0695 11.52C49.0695 9.61333 48.7829 8.16667 48.2095 7.18C47.6495 6.19333 46.8162 5.7 45.7095 5.7ZM53.4192 19L60.1992 5.88H52.6592V4.04H62.4992V5.72L55.6992 19H53.4192Z" fill="#272A37"/>
<rect x="67" width="26" height="24" rx="12" fill="#F2F3F6"/>
<path d="M83.9143 17V15.3223H80.2511C79.6258 15.3223 79.078 15.1699 78.6078 14.8651C78.1376 14.5603 77.7745 14.1306 77.5185 13.5762C77.2624 13.0218 77.1344 12.3797 77.1344 11.6501C77.1344 10.8581 77.2489 10.2004 77.4778 9.67719C77.7068 9.15396 78.0773 8.74834 78.5894 8.46032V11.8085H79.483V8.19391C79.6307 8.16511 79.7907 8.15071 79.9631 8.15071C80.1305 8.15071 80.2979 8.16511 80.4653 8.19391V11.8085H81.3589V8.46032C81.8858 8.74354 82.2637 9.15396 82.4926 9.69159C82.7216 10.2292 82.836 10.9349 82.836 11.8085H85C85 10.9733 84.8535 10.204 84.5606 9.50078C84.2676 8.79754 83.8466 8.20231 83.2976 7.71508C82.7486 7.22785 82.1024 6.89063 81.3589 6.70342V6H80.4653V6.54502L80.229 6.53781C80.1748 6.53301 80.096 6.53061 79.9926 6.53061C79.7612 6.53061 79.5913 6.53541 79.483 6.54502V6H78.5894V6.70342C77.8705 6.89063 77.2403 7.21585 76.6987 7.67908C76.1571 8.1423 75.7386 8.69554 75.4431 9.33877C75.1477 9.98201 75 10.6588 75 11.3693C75 11.9165 75.0763 12.4493 75.229 12.9678C75.3816 13.4862 75.6056 13.9506 75.901 14.3611C76.1965 14.7715 76.5485 15.0919 76.9572 15.3223V15.3799H75.5465V17H83.9143Z" fill="#272A37"/>
</svg>
