<svg width="396" height="50" viewBox="0 0 396 50" fill="none" xmlns="http://www.w3.org/2000/svg">
<path fill-rule="evenodd" clip-rule="evenodd" d="M5.52488 3C5.13653 3 4.82171 3.35066 4.82171 3.78322C4.82171 4.21578 5.13653 4.56643 5.52488 4.56643H7.33347V6.27273H5.68644C5.51194 6.27273 5.3446 6.3412 5.22121 6.46308L4.00406 7.66538H3.33668C2.97331 7.66538 2.67875 7.95635 2.67875 8.31528V9.54545H1.50009V8.13369C1.50009 7.7084 1.16428 7.36364 0.750043 7.36364C0.335806 7.36364 0 7.7084 0 8.13369V13.084C0 13.5093 0.335806 13.8541 0.750043 13.8541C1.16428 13.8541 1.50009 13.5093 1.50009 13.084V11.0856H2.67875V12.9574C2.67875 13.3164 2.97331 13.6074 3.33668 13.6074H4.00406L5.22121 14.8096C5.3446 14.9315 5.51194 15 5.68644 15H10.8559C10.9983 15 11.1368 14.9544 11.2507 14.87L13.1305 13.4774C13.2961 13.3546 13.3936 13.162 13.3936 12.9574V11.0856H14.4999V13.084C14.4999 13.5093 14.8357 13.8541 15.25 13.8541C15.6642 13.8541 16 13.5093 16 13.084V8.13369C16 7.7084 15.6642 7.36364 15.25 7.36364C14.8357 7.36364 14.4999 7.7084 14.4999 8.13369V9.54545H13.3936V8.31528C13.3936 8.14292 13.3243 7.97761 13.2009 7.85573L11.7911 6.46308C11.6677 6.3412 11.5004 6.27273 11.3259 6.27273H8.7398V4.56643H10.5475C10.9358 4.56643 11.2507 4.21578 11.2507 3.78322C11.2507 3.35066 10.9358 3 10.5475 3H8.03664H5.52488ZM4.74181 8.77483L5.95896 7.57253H11.0533L12.0778 8.58448V12.6325L10.6366 13.7002H5.95896L4.74181 12.4979C4.61842 12.376 4.45108 12.3075 4.27658 12.3075H3.99461V8.96518H4.27658C4.45108 8.96518 4.61842 8.89671 4.74181 8.77483Z" fill="#9CA2AA"/>
<path d="M30.22 5.132L28.684 6.296L28.12 5.324L30.532 3.524H31.456V12.5H30.22V5.132ZM33.7957 11.06C34.0197 11.06 34.2077 11.136 34.3597 11.288C34.5117 11.44 34.5877 11.624 34.5877 11.84C34.5877 12.064 34.5117 12.252 34.3597 12.404C34.2077 12.548 34.0197 12.62 33.7957 12.62C33.5877 12.62 33.4077 12.544 33.2557 12.392C33.1037 12.24 33.0277 12.056 33.0277 11.84C33.0277 11.624 33.1037 11.44 33.2557 11.288C33.4077 11.136 33.5877 11.06 33.7957 11.06ZM38.7016 3.404C39.2216 3.404 39.6896 3.504 40.1056 3.704C40.5216 3.896 40.8496 4.176 41.0896 4.544C41.3296 4.912 41.4496 5.344 41.4496 5.84C41.4496 6.28 41.3496 6.668 41.1496 7.004C40.9496 7.332 40.6856 7.58 40.3576 7.748C40.7416 7.94 41.0536 8.228 41.2936 8.612C41.5416 8.996 41.6656 9.444 41.6656 9.956C41.6656 10.492 41.5376 10.964 41.2816 11.372C41.0256 11.772 40.6736 12.08 40.2256 12.296C39.7776 12.512 39.2736 12.62 38.7136 12.62C38.1456 12.62 37.6376 12.512 37.1896 12.296C36.7416 12.08 36.3896 11.772 36.1336 11.372C35.8776 10.964 35.7496 10.492 35.7496 9.956C35.7496 9.444 35.8696 9 36.1096 8.624C36.3496 8.24 36.6656 7.952 37.0576 7.76C36.7296 7.584 36.4656 7.332 36.2656 7.004C36.0656 6.668 35.9656 6.28 35.9656 5.84C35.9656 5.336 36.0816 4.904 36.3136 4.544C36.5536 4.176 36.8816 3.896 37.2976 3.704C37.7136 3.504 38.1816 3.404 38.7016 3.404ZM38.7136 4.52C38.2736 4.52 37.9136 4.648 37.6336 4.904C37.3536 5.152 37.2136 5.492 37.2136 5.924C37.2136 6.34 37.3536 6.676 37.6336 6.932C37.9216 7.18 38.2816 7.304 38.7136 7.304C39.1456 7.304 39.5016 7.18 39.7816 6.932C40.0696 6.676 40.2136 6.34 40.2136 5.924C40.2136 5.492 40.0736 5.152 39.7936 4.904C39.5136 4.648 39.1536 4.52 38.7136 4.52ZM38.7136 8.312C38.2096 8.312 37.7976 8.456 37.4776 8.744C37.1576 9.024 36.9976 9.412 36.9976 9.908C36.9976 10.396 37.1576 10.784 37.4776 11.072C37.8056 11.36 38.2176 11.504 38.7136 11.504C39.2096 11.504 39.6176 11.36 39.9376 11.072C40.2656 10.784 40.4296 10.396 40.4296 9.908C40.4296 9.412 40.2696 9.024 39.9496 8.744C39.6296 8.456 39.2176 8.312 38.7136 8.312ZM51.8043 15.608C51.6603 14.616 50.8563 14.12 49.3923 14.12H46.7283V13.172H47.6763C47.0923 12.884 46.6283 12.428 46.2843 11.804C45.9483 11.18 45.7803 10.452 45.7803 9.62C45.7803 8.932 45.8883 8.352 46.1043 7.88C46.3283 7.408 46.6243 7.06 46.9923 6.836C47.3603 6.604 47.7683 6.488 48.2163 6.488C48.6883 6.488 49.1043 6.608 49.4643 6.848C49.8243 7.08 50.0763 7.408 50.2203 7.832C50.3723 7.408 50.6403 7.08 51.0243 6.848C51.4163 6.608 51.8563 6.488 52.3443 6.488C52.8403 6.488 53.2883 6.608 53.6883 6.848C54.0963 7.08 54.4163 7.412 54.6483 7.844C54.8803 8.268 54.9963 8.76 54.9963 9.32C54.9963 9.872 54.8803 10.36 54.6483 10.784C54.4163 11.208 54.0963 11.536 53.6883 11.768C53.2803 12 52.8163 12.116 52.2963 12.116C51.7843 12.116 51.3243 12 50.9163 11.768C50.5083 11.536 50.1883 11.212 49.9563 10.796C49.7243 10.372 49.6083 9.88 49.6083 9.32V9.092C49.6083 8.588 49.4883 8.2 49.2483 7.928C49.0163 7.648 48.7043 7.508 48.3123 7.508C47.9123 7.508 47.5883 7.688 47.3403 8.048C47.0923 8.4 46.9683 8.932 46.9683 9.644C46.9683 10.66 47.2323 11.472 47.7603 12.08C48.2963 12.68 49.0123 13.02 49.9083 13.1L50.2323 13.136C51.0723 13.216 51.7243 13.46 52.1883 13.868C52.6603 14.276 52.9283 14.84 52.9923 15.56L51.8043 15.608ZM52.2963 11.108C52.7523 11.108 53.1203 10.944 53.4003 10.616C53.6803 10.288 53.8203 9.852 53.8203 9.308C53.8203 8.764 53.6803 8.328 53.4003 8C53.1283 7.672 52.7603 7.508 52.2963 7.508C51.8403 7.508 51.4723 7.672 51.1923 8C50.9203 8.328 50.7843 8.764 50.7843 9.308C50.7843 9.852 50.9203 10.288 51.1923 10.616C51.4723 10.944 51.8403 11.108 52.2963 11.108ZM59.3899 6.62C59.3819 6.892 59.4499 7.124 59.5939 7.316C59.7379 7.508 59.9619 7.736 60.2659 8C60.5299 8.224 60.7419 8.428 60.9019 8.612C61.0699 8.796 61.2139 9.024 61.3339 9.296C61.4539 9.56 61.5139 9.872 61.5139 10.232C61.5139 10.728 61.3899 11.156 61.1419 11.516C60.9019 11.876 60.5739 12.152 60.1579 12.344C59.7499 12.528 59.2979 12.62 58.8019 12.62C58.2979 12.62 57.8379 12.516 57.4219 12.308C57.0139 12.1 56.6899 11.804 56.4499 11.42C56.2179 11.028 56.1019 10.58 56.1019 10.076C56.1019 9.836 56.1259 9.592 56.1739 9.344L57.3379 9.38C57.2979 9.604 57.2779 9.804 57.2779 9.98C57.2779 10.492 57.4179 10.896 57.6979 11.192C57.9779 11.48 58.3459 11.624 58.8019 11.624C59.2579 11.624 59.6259 11.5 59.9059 11.252C60.1939 11.004 60.3379 10.656 60.3379 10.208C60.3379 9.88 60.2539 9.608 60.0859 9.392C59.9259 9.176 59.6779 8.928 59.3419 8.648C59.0859 8.432 58.8779 8.244 58.7179 8.084C58.5659 7.916 58.4379 7.712 58.3339 7.472C58.2379 7.224 58.1979 6.94 58.2139 6.62H59.3899ZM67.4661 6.584C68.1701 6.664 68.7981 6.892 69.3501 7.268C69.9101 7.636 70.3501 8.144 70.6701 8.792C70.9901 9.44 71.1501 10.204 71.1501 11.084C71.1501 12.044 70.9621 12.864 70.5861 13.544C70.2101 14.224 69.6981 14.74 69.0501 15.092C68.4021 15.444 67.6821 15.62 66.8901 15.62C66.0901 15.62 65.3621 15.444 64.7061 15.092C64.0581 14.74 63.5421 14.224 63.1581 13.544C62.7821 12.864 62.5941 12.044 62.5941 11.084C62.5941 10.204 62.7541 9.44 63.0741 8.792C63.3941 8.144 63.8341 7.636 64.3941 7.268C64.9541 6.892 65.5901 6.664 66.3021 6.584V5.12H67.4661V6.584ZM66.8901 14.6C67.4661 14.6 67.9861 14.468 68.4501 14.204C68.9141 13.94 69.2821 13.544 69.5541 13.016C69.8341 12.488 69.9741 11.844 69.9741 11.084C69.9741 10.028 69.7301 9.204 69.2421 8.612C68.7541 8.012 68.1221 7.664 67.3461 7.568C67.4261 7.872 67.4661 8.172 67.4661 8.468V11.24H66.3021V8.468C66.3021 8.172 66.3421 7.872 66.4221 7.568C65.6301 7.672 64.9901 8.02 64.5021 8.612C64.0141 9.204 63.7701 10.028 63.7701 11.084C63.7701 11.844 63.9061 12.488 64.1781 13.016C64.4581 13.544 64.8341 13.94 65.3061 14.204C65.7781 14.468 66.3061 14.6 66.8901 14.6ZM72.9481 11.06C73.1721 11.06 73.3601 11.136 73.5121 11.288C73.6641 11.44 73.7401 11.624 73.7401 11.84C73.7401 12.064 73.6641 12.252 73.5121 12.404C73.3601 12.548 73.1721 12.62 72.9481 12.62C72.7401 12.62 72.5601 12.544 72.4081 12.392C72.2561 12.24 72.1801 12.056 72.1801 11.84C72.1801 11.624 72.2561 11.44 72.4081 11.288C72.5601 11.136 72.7401 11.06 72.9481 11.06ZM82.1058 8.936C82.4898 9.008 82.8058 9.184 83.0538 9.464C83.3018 9.744 83.4258 10.096 83.4258 10.52C83.4258 10.92 83.3058 11.28 83.0658 11.6C82.8338 11.92 82.4938 12.172 82.0458 12.356C81.5978 12.54 81.0698 12.632 80.4618 12.632C79.8538 12.632 79.3178 12.524 78.8538 12.308C78.3978 12.092 78.0498 11.784 77.8098 11.384C77.5698 10.976 77.4658 10.508 77.4978 9.98L78.6738 10.016C78.6418 10.504 78.7938 10.892 79.1298 11.18C79.4738 11.468 79.9138 11.612 80.4498 11.612C80.9938 11.612 81.4298 11.508 81.7578 11.3C82.0858 11.092 82.2498 10.8 82.2498 10.424C82.2498 10.088 82.1058 9.824 81.8178 9.632C81.5378 9.44 81.1458 9.344 80.6418 9.344H80.0178V8.432H81.1458C81.4418 8.432 81.6778 8.372 81.8538 8.252C82.0378 8.124 82.1298 7.948 82.1298 7.724C82.1298 7.5 82.0378 7.328 81.8538 7.208C81.6778 7.088 81.4418 7.028 81.1458 7.028H80.0178V6.116H81.0258C81.3218 6.116 81.5418 6.064 81.6858 5.96C81.8378 5.856 81.9138 5.712 81.9138 5.528C81.9138 5.352 81.8418 5.208 81.6978 5.096C81.5618 4.976 81.3418 4.836 81.0378 4.676C80.7658 4.532 80.5458 4.404 80.3778 4.292C80.2098 4.18 80.0658 4.032 79.9458 3.848C79.8338 3.664 79.7818 3.44 79.7898 3.176L80.9658 3.116C80.9738 3.3 81.0498 3.456 81.1938 3.584C81.3378 3.712 81.5658 3.864 81.8778 4.04C82.2698 4.256 82.5698 4.468 82.7778 4.676C82.9938 4.876 83.1018 5.148 83.1018 5.492C83.1018 5.748 83.0178 5.976 82.8498 6.176C82.6818 6.368 82.4338 6.496 82.1058 6.56C82.4738 6.6 82.7658 6.728 82.9818 6.944C83.1978 7.152 83.3058 7.424 83.3058 7.76C83.3058 8.088 83.1978 8.348 82.9818 8.54C82.7738 8.732 82.4818 8.864 82.1058 8.936ZM85.2511 12.5C85.0591 12.012 84.9111 11.54 84.8071 11.084C84.7111 10.628 84.6631 10.144 84.6631 9.632C84.6631 8.976 84.7791 8.412 85.0111 7.94C85.2511 7.468 85.5831 7.108 86.0071 6.86C86.4311 6.612 86.9191 6.488 87.4711 6.488C88.0311 6.488 88.5231 6.612 88.9471 6.86C89.3711 7.108 89.6991 7.468 89.9311 7.94C90.1711 8.412 90.2911 8.976 90.2911 9.632C90.2911 10.136 90.2391 10.616 90.1351 11.072C90.0391 11.52 89.8951 11.996 89.7031 12.5H88.5391C88.7391 11.972 88.8831 11.492 88.9711 11.06C89.0591 10.628 89.1031 10.168 89.1031 9.68C89.1031 9 88.9591 8.472 88.6711 8.096C88.3831 7.712 87.9831 7.52 87.4711 7.52C86.9591 7.52 86.5591 7.712 86.2711 8.096C85.9831 8.472 85.8391 9 85.8391 9.68C85.8391 10.16 85.8831 10.62 85.9711 11.06C86.0671 11.5 86.2151 11.98 86.4151 12.5H85.2511ZM95.3343 6.584C96.0223 6.728 96.5783 7.068 97.0023 7.604C97.4263 8.132 97.6383 8.788 97.6383 9.572C97.6383 10.18 97.5023 10.716 97.2303 11.18C96.9663 11.644 96.6023 12 96.1383 12.248C95.6743 12.496 95.1543 12.62 94.5783 12.62C94.0023 12.62 93.4823 12.496 93.0183 12.248C92.5543 12 92.1903 11.644 91.9263 11.18C91.6623 10.716 91.5303 10.18 91.5303 9.572C91.5303 9.012 91.6383 8.516 91.8543 8.084C92.0783 7.644 92.3823 7.292 92.7663 7.028C93.1583 6.764 93.6023 6.6 94.0983 6.536V5.552C94.0983 5.368 94.0583 5.22 93.9783 5.108C93.9063 4.988 93.7903 4.852 93.6303 4.7C93.4063 4.492 93.2383 4.284 93.1263 4.076C93.0143 3.868 92.9703 3.568 92.9943 3.176H94.2063C94.1983 3.408 94.2383 3.596 94.3263 3.74C94.4143 3.884 94.5503 4.044 94.7343 4.22C94.9263 4.404 95.0743 4.584 95.1783 4.76C95.2823 4.928 95.3343 5.16 95.3343 5.456V6.584ZM94.5783 11.6C95.1223 11.6 95.5703 11.416 95.9223 11.048C96.2743 10.68 96.4503 10.188 96.4503 9.572C96.4503 8.948 96.2743 8.452 95.9223 8.084C95.5703 7.708 95.1223 7.52 94.5783 7.52C94.0343 7.52 93.5863 7.704 93.2343 8.072C92.8823 8.44 92.7063 8.94 92.7063 9.572C92.7063 10.196 92.8823 10.692 93.2343 11.06C93.5863 11.42 94.0343 11.6 94.5783 11.6ZM105.274 6.488C105.73 6.488 106.142 6.604 106.51 6.836C106.878 7.06 107.17 7.408 107.386 7.88C107.61 8.344 107.722 8.92 107.722 9.608C107.722 10.128 107.67 10.612 107.566 11.06C107.462 11.508 107.314 11.988 107.122 12.5H105.946C106.146 11.98 106.29 11.5 106.378 11.06C106.474 10.62 106.522 10.144 106.522 9.632C106.522 8.92 106.398 8.388 106.15 8.036C105.902 7.684 105.574 7.508 105.166 7.508C104.766 7.508 104.45 7.652 104.218 7.94C103.994 8.228 103.882 8.676 103.882 9.284V11.048H102.706V9.284C102.706 8.676 102.59 8.228 102.358 7.94C102.134 7.652 101.826 7.508 101.434 7.508C101.018 7.508 100.682 7.684 100.426 8.036C100.178 8.388 100.054 8.916 100.054 9.62C100.054 10.124 100.098 10.6 100.186 11.048C100.282 11.488 100.434 11.972 100.642 12.5H99.4659C99.2579 11.94 99.1059 11.396 99.0099 10.868C98.9219 10.34 98.8779 9.696 98.8779 8.936C98.8779 7.832 99.0539 6.964 99.4059 6.332C99.7579 5.692 100.174 5.236 100.654 4.964C101.134 4.692 101.734 4.444 102.454 4.22C102.83 4.092 103.114 3.988 103.306 3.908C103.506 3.828 103.682 3.724 103.834 3.596C103.986 3.468 104.09 3.308 104.146 3.116L105.358 3.176C105.31 3.568 105.166 3.888 104.926 4.136C104.686 4.384 104.406 4.576 104.086 4.712C103.766 4.848 103.334 5 102.79 5.168C102.222 5.336 101.762 5.496 101.41 5.648C101.058 5.8 100.738 6.012 100.45 6.284C100.17 6.556 99.9779 6.912 99.8739 7.352C100.058 7.04 100.29 6.82 100.57 6.692C100.85 6.556 101.146 6.488 101.458 6.488C102.37 6.488 102.982 6.908 103.294 7.748C103.622 6.908 104.282 6.488 105.274 6.488ZM109.544 12.5C109.352 12.012 109.204 11.54 109.1 11.084C109.004 10.628 108.956 10.144 108.956 9.632C108.956 8.976 109.072 8.412 109.304 7.94C109.544 7.468 109.876 7.108 110.3 6.86C110.724 6.612 111.212 6.488 111.764 6.488C112.324 6.488 112.816 6.612 113.24 6.86C113.664 7.108 113.992 7.468 114.224 7.94C114.464 8.412 114.584 8.976 114.584 9.632C114.584 10.136 114.532 10.616 114.428 11.072C114.332 11.52 114.188 11.996 113.996 12.5H112.832C113.032 11.972 113.176 11.492 113.264 11.06C113.352 10.628 113.396 10.168 113.396 9.68C113.396 9 113.252 8.472 112.964 8.096C112.676 7.712 112.276 7.52 111.764 7.52C111.252 7.52 110.852 7.712 110.564 8.096C110.276 8.472 110.132 9 110.132 9.68C110.132 10.16 110.176 10.62 110.264 11.06C110.36 11.5 110.508 11.98 110.708 12.5H109.544ZM121.847 15.608C121.703 14.616 120.899 14.12 119.435 14.12H116.771V13.172H117.719C117.135 12.884 116.671 12.428 116.327 11.804C115.991 11.18 115.823 10.452 115.823 9.62C115.823 8.932 115.931 8.352 116.147 7.88C116.371 7.408 116.667 7.06 117.035 6.836C117.403 6.604 117.811 6.488 118.259 6.488C118.731 6.488 119.147 6.608 119.507 6.848C119.867 7.08 120.119 7.408 120.263 7.832C120.415 7.408 120.683 7.08 121.067 6.848C121.459 6.608 121.899 6.488 122.387 6.488C122.883 6.488 123.331 6.608 123.731 6.848C124.139 7.08 124.459 7.412 124.691 7.844C124.923 8.268 125.039 8.76 125.039 9.32C125.039 9.872 124.923 10.36 124.691 10.784C124.459 11.208 124.139 11.536 123.731 11.768C123.323 12 122.859 12.116 122.339 12.116C121.827 12.116 121.367 12 120.959 11.768C120.551 11.536 120.231 11.212 119.999 10.796C119.767 10.372 119.651 9.88 119.651 9.32V9.092C119.651 8.588 119.531 8.2 119.291 7.928C119.059 7.648 118.747 7.508 118.355 7.508C117.955 7.508 117.631 7.688 117.383 8.048C117.135 8.4 117.011 8.932 117.011 9.644C117.011 10.66 117.275 11.472 117.803 12.08C118.339 12.68 119.055 13.02 119.951 13.1L120.275 13.136C121.115 13.216 121.767 13.46 122.231 13.868C122.703 14.276 122.971 14.84 123.035 15.56L121.847 15.608ZM122.339 11.108C122.795 11.108 123.163 10.944 123.443 10.616C123.723 10.288 123.863 9.852 123.863 9.308C123.863 8.764 123.723 8.328 123.443 8C123.171 7.672 122.803 7.508 122.339 7.508C121.883 7.508 121.515 7.672 121.235 8C120.963 8.328 120.827 8.764 120.827 9.308C120.827 9.852 120.963 10.288 121.235 10.616C121.515 10.944 121.883 11.108 122.339 11.108ZM126.876 12.5C126.684 12.012 126.536 11.54 126.432 11.084C126.336 10.628 126.288 10.144 126.288 9.632C126.288 8.976 126.404 8.412 126.636 7.94C126.876 7.468 127.208 7.108 127.632 6.86C128.056 6.612 128.544 6.488 129.096 6.488C129.656 6.488 130.148 6.612 130.572 6.86C130.996 7.108 131.324 7.468 131.556 7.94C131.796 8.412 131.916 8.976 131.916 9.632C131.916 10.136 131.864 10.616 131.76 11.072C131.664 11.52 131.52 11.996 131.328 12.5H130.164C130.364 11.972 130.508 11.492 130.596 11.06C130.684 10.628 130.728 10.168 130.728 9.68C130.728 9 130.584 8.472 130.296 8.096C130.008 7.712 129.608 7.52 129.096 7.52C128.584 7.52 128.184 7.712 127.896 8.096C127.608 8.472 127.464 9 127.464 9.68C127.464 10.16 127.508 10.62 127.596 11.06C127.692 11.5 127.84 11.98 128.04 12.5H126.876Z" fill="#1B1D25"/>
<circle cx="222" cy="9" r="6.3" stroke="#9CA2AA" stroke-width="1.4"/>
<circle cx="222" cy="9" r="1.3" stroke="#9CA2AA" stroke-width="1.4"/>
<path d="M226 9C226 6.79086 224.209 5 222 5C219.791 5 218 6.79086 218 9" stroke="#9CA2AA" stroke-width="1.4" stroke-linecap="round"/>
<path d="M223 8L224.5 6.5" stroke="#9CA2AA" stroke-width="1.4" stroke-linecap="round" stroke-linejoin="round"/>
<path d="M245.312 3.404C246.144 3.404 246.784 3.628 247.232 4.076C247.688 4.516 247.916 5.132 247.916 5.924C247.916 6.612 247.772 7.216 247.484 7.736C247.196 8.256 246.764 8.812 246.188 9.404L244.256 11.396H248.012V12.5H242.66V11.54L245.24 8.792C245.768 8.232 246.136 7.756 246.344 7.364C246.56 6.972 246.668 6.512 246.668 5.984C246.668 5.536 246.552 5.18 246.32 4.916C246.088 4.652 245.76 4.52 245.336 4.52C244.856 4.52 244.496 4.668 244.256 4.964C244.016 5.252 243.888 5.664 243.872 6.2L242.636 6.14C242.652 5.284 242.892 4.616 243.356 4.136C243.82 3.648 244.472 3.404 245.312 3.404ZM252.321 3.404C252.977 3.404 253.549 3.584 254.037 3.944C254.533 4.296 254.913 4.82 255.177 5.516C255.449 6.204 255.585 7.036 255.585 8.012C255.585 8.98 255.449 9.812 255.177 10.508C254.913 11.196 254.533 11.72 254.037 12.08C253.549 12.44 252.977 12.62 252.321 12.62C251.665 12.62 251.089 12.44 250.593 12.08C250.105 11.72 249.725 11.196 249.453 10.508C249.189 9.82 249.057 8.988 249.057 8.012C249.057 7.036 249.189 6.204 249.453 5.516C249.725 4.82 250.105 4.296 250.593 3.944C251.089 3.584 251.665 3.404 252.321 3.404ZM252.309 4.52C251.661 4.52 251.169 4.816 250.833 5.408C250.497 6 250.329 6.868 250.329 8.012C250.329 9.156 250.497 10.024 250.833 10.616C251.169 11.208 251.661 11.504 252.309 11.504C252.973 11.504 253.473 11.208 253.809 10.616C254.153 10.024 254.325 9.156 254.325 8.012C254.325 6.868 254.153 6 253.809 5.408C253.473 4.816 252.973 4.52 252.309 4.52ZM260.079 3.404C260.735 3.404 261.307 3.584 261.795 3.944C262.291 4.296 262.671 4.82 262.935 5.516C263.207 6.204 263.343 7.036 263.343 8.012C263.343 8.98 263.207 9.812 262.935 10.508C262.671 11.196 262.291 11.72 261.795 12.08C261.307 12.44 260.735 12.62 260.079 12.62C259.423 12.62 258.847 12.44 258.351 12.08C257.863 11.72 257.483 11.196 257.211 10.508C256.947 9.82 256.815 8.988 256.815 8.012C256.815 7.036 256.947 6.204 257.211 5.516C257.483 4.82 257.863 4.296 258.351 3.944C258.847 3.584 259.423 3.404 260.079 3.404ZM260.067 4.52C259.419 4.52 258.927 4.816 258.591 5.408C258.255 6 258.087 6.868 258.087 8.012C258.087 9.156 258.255 10.024 258.591 10.616C258.927 11.208 259.419 11.504 260.067 11.504C260.731 11.504 261.231 11.208 261.567 10.616C261.911 10.024 262.083 9.156 262.083 8.012C262.083 6.868 261.911 6 261.567 5.408C261.231 4.816 260.731 4.52 260.067 4.52ZM270.673 3.404C271.329 3.404 271.901 3.584 272.389 3.944C272.885 4.296 273.265 4.82 273.529 5.516C273.801 6.204 273.937 7.036 273.937 8.012C273.937 8.98 273.801 9.812 273.529 10.508C273.265 11.196 272.885 11.72 272.389 12.08C271.901 12.44 271.329 12.62 270.673 12.62C270.017 12.62 269.441 12.44 268.945 12.08C268.457 11.72 268.077 11.196 267.805 10.508C267.541 9.82 267.409 8.988 267.409 8.012C267.409 7.036 267.541 6.204 267.805 5.516C268.077 4.82 268.457 4.296 268.945 3.944C269.441 3.584 270.017 3.404 270.673 3.404ZM270.661 4.52C270.013 4.52 269.521 4.816 269.185 5.408C268.849 6 268.681 6.868 268.681 8.012C268.681 9.156 268.849 10.024 269.185 10.616C269.521 11.208 270.013 11.504 270.661 11.504C271.325 11.504 271.825 11.208 272.161 10.616C272.505 10.024 272.677 9.156 272.677 8.012C272.677 6.868 272.505 6 272.161 5.408C271.825 4.816 271.325 4.52 270.661 4.52ZM278.431 3.404C279.087 3.404 279.659 3.584 280.147 3.944C280.643 4.296 281.023 4.82 281.287 5.516C281.559 6.204 281.695 7.036 281.695 8.012C281.695 8.98 281.559 9.812 281.287 10.508C281.023 11.196 280.643 11.72 280.147 12.08C279.659 12.44 279.087 12.62 278.431 12.62C277.775 12.62 277.199 12.44 276.703 12.08C276.215 11.72 275.835 11.196 275.563 10.508C275.299 9.82 275.167 8.988 275.167 8.012C275.167 7.036 275.299 6.204 275.563 5.516C275.835 4.82 276.215 4.296 276.703 3.944C277.199 3.584 277.775 3.404 278.431 3.404ZM278.419 4.52C277.771 4.52 277.279 4.816 276.943 5.408C276.607 6 276.439 6.868 276.439 8.012C276.439 9.156 276.607 10.024 276.943 10.616C277.279 11.208 277.771 11.504 278.419 11.504C279.083 11.504 279.583 11.208 279.919 10.616C280.263 10.024 280.435 9.156 280.435 8.012C280.435 6.868 280.263 6 279.919 5.408C279.583 4.816 279.083 4.52 278.419 4.52ZM286.189 3.404C286.845 3.404 287.417 3.584 287.905 3.944C288.401 4.296 288.781 4.82 289.045 5.516C289.317 6.204 289.453 7.036 289.453 8.012C289.453 8.98 289.317 9.812 289.045 10.508C288.781 11.196 288.401 11.72 287.905 12.08C287.417 12.44 286.845 12.62 286.189 12.62C285.533 12.62 284.957 12.44 284.461 12.08C283.973 11.72 283.593 11.196 283.321 10.508C283.057 9.82 282.925 8.988 282.925 8.012C282.925 7.036 283.057 6.204 283.321 5.516C283.593 4.82 283.973 4.296 284.461 3.944C284.957 3.584 285.533 3.404 286.189 3.404ZM286.177 4.52C285.529 4.52 285.037 4.816 284.701 5.408C284.365 6 284.197 6.868 284.197 8.012C284.197 9.156 284.365 10.024 284.701 10.616C285.037 11.208 285.529 11.504 286.177 11.504C286.841 11.504 287.341 11.208 287.677 10.616C288.021 10.024 288.193 9.156 288.193 8.012C288.193 6.868 288.021 6 287.677 5.408C287.341 4.816 286.841 4.52 286.177 4.52ZM296.566 6.5C297.078 6.508 297.53 6.612 297.922 6.812C298.322 7.012 298.63 7.292 298.846 7.652C299.07 8.012 299.182 8.424 299.182 8.888C299.182 9.336 299.07 9.724 298.846 10.052C298.622 10.372 298.31 10.6 297.91 10.736C298.31 10.84 298.642 11.096 298.906 11.504C299.17 11.904 299.302 12.388 299.302 12.956C299.302 13.476 299.182 13.94 298.942 14.348C298.702 14.764 298.354 15.088 297.898 15.32C297.45 15.56 296.926 15.68 296.326 15.68C295.718 15.68 295.186 15.556 294.73 15.308C294.274 15.068 293.926 14.736 293.686 14.312C293.446 13.888 293.326 13.404 293.326 12.86C293.326 12.604 293.354 12.352 293.41 12.104L294.574 12.164C294.526 12.364 294.502 12.56 294.502 12.752C294.502 13.336 294.666 13.796 294.994 14.132C295.322 14.476 295.762 14.648 296.314 14.648C296.858 14.648 297.294 14.488 297.622 14.168C297.95 13.856 298.114 13.424 298.114 12.872C298.114 12.344 297.962 11.932 297.658 11.636C297.362 11.34 296.946 11.192 296.41 11.192H295.966V10.184H296.518C296.998 10.184 297.362 10.072 297.61 9.848C297.858 9.616 297.982 9.3 297.982 8.9C297.982 8.492 297.846 8.164 297.574 7.916C297.31 7.66 296.954 7.52 296.506 7.496L296.566 6.5ZM303.385 12.62C302.785 12.62 302.261 12.492 301.813 12.236C301.365 11.98 301.021 11.624 300.781 11.168C300.541 10.704 300.421 10.172 300.421 9.572C300.421 8.964 300.537 8.428 300.769 7.964C301.009 7.5 301.341 7.14 301.765 6.884C302.197 6.62 302.693 6.488 303.253 6.488C303.685 6.488 304.073 6.572 304.417 6.74C304.761 6.908 305.021 7.132 305.197 7.412V5.816C305.197 5.24 305.029 4.804 304.693 4.508C304.365 4.204 303.929 4.052 303.385 4.052C302.865 4.052 302.441 4.196 302.113 4.484C301.793 4.764 301.633 5.116 301.633 5.54L300.445 5.504C300.445 5.04 300.573 4.62 300.829 4.244C301.085 3.868 301.437 3.576 301.885 3.368C302.333 3.16 302.829 3.056 303.373 3.056C303.941 3.056 304.453 3.172 304.909 3.404C305.365 3.628 305.721 3.948 305.977 4.364C306.241 4.78 306.373 5.264 306.373 5.816V9.572C306.373 10.172 306.253 10.704 306.013 11.168C305.773 11.624 305.425 11.98 304.969 12.236C304.521 12.492 303.993 12.62 303.385 12.62ZM303.397 11.6C303.933 11.6 304.365 11.428 304.693 11.084C305.029 10.732 305.197 10.28 305.197 9.728V9.404C305.197 8.812 305.033 8.352 304.705 8.024C304.377 7.688 303.941 7.52 303.397 7.52C302.853 7.52 302.417 7.704 302.089 8.072C301.769 8.44 301.609 8.94 301.609 9.572C301.609 10.188 301.773 10.68 302.101 11.048C302.437 11.416 302.869 11.6 303.397 11.6Z" fill="#1B1D25"/>
<rect x="2.6" y="40.6" width="10.8" height="7.8" rx="1.2" stroke="#8C929B" stroke-width="1.2"/>
<path d="M8 38V43" stroke="#8C929B" stroke-width="1.2" stroke-linecap="round" stroke-linejoin="round"/>
<path d="M8 45V46.5" stroke="#8C929B" stroke-linecap="round" stroke-linejoin="round"/>
<circle cx="8" cy="35.5" r="1.8" stroke="#8C929B" stroke-width="1.4"/>
<path d="M5 43V46" stroke="#8C929B" stroke-linecap="round" stroke-linejoin="round"/>
<path d="M11 43V46" stroke="#8C929B" stroke-linecap="round" stroke-linejoin="round"/>
<path d="M31.804 38.62C31.796 38.892 31.864 39.124 32.008 39.316C32.152 39.508 32.376 39.736 32.68 40C32.944 40.224 33.156 40.428 33.316 40.612C33.484 40.796 33.628 41.024 33.748 41.296C33.868 41.56 33.928 41.872 33.928 42.232C33.928 42.728 33.804 43.156 33.556 43.516C33.316 43.876 32.988 44.152 32.572 44.344C32.164 44.528 31.712 44.62 31.216 44.62C30.712 44.62 30.252 44.516 29.836 44.308C29.428 44.1 29.104 43.804 28.864 43.42C28.632 43.028 28.516 42.58 28.516 42.076C28.516 41.836 28.54 41.592 28.588 41.344L29.752 41.38C29.712 41.604 29.692 41.804 29.692 41.98C29.692 42.492 29.832 42.896 30.112 43.192C30.392 43.48 30.76 43.624 31.216 43.624C31.672 43.624 32.04 43.5 32.32 43.252C32.608 43.004 32.752 42.656 32.752 42.208C32.752 41.88 32.668 41.608 32.5 41.392C32.34 41.176 32.092 40.928 31.756 40.648C31.5 40.432 31.292 40.244 31.132 40.084C30.98 39.916 30.852 39.712 30.748 39.472C30.652 39.224 30.612 38.94 30.628 38.62H31.804ZM38.023 38.488C38.559 38.488 39.039 38.592 39.463 38.8C39.895 39.008 40.231 39.304 40.471 39.688C40.719 40.064 40.843 40.508 40.843 41.02C40.843 41.492 40.731 41.884 40.507 42.196C40.283 42.508 39.971 42.732 39.571 42.868C39.971 42.98 40.303 43.236 40.567 43.636C40.831 44.028 40.963 44.492 40.963 45.028C40.963 45.54 40.843 45.996 40.603 46.396C40.363 46.796 40.015 47.108 39.559 47.332C39.111 47.564 38.587 47.68 37.987 47.68C37.363 47.68 36.819 47.556 36.355 47.308C35.899 47.068 35.547 46.736 35.299 46.312C35.059 45.888 34.939 45.404 34.939 44.86C34.939 44.604 34.967 44.352 35.023 44.104L36.187 44.164C36.147 44.324 36.127 44.516 36.127 44.74C36.127 45.332 36.295 45.8 36.631 46.144C36.967 46.488 37.415 46.66 37.975 46.66C38.527 46.66 38.967 46.504 39.295 46.192C39.623 45.88 39.787 45.456 39.787 44.92C39.787 44.416 39.635 44.024 39.331 43.744C39.027 43.464 38.595 43.324 38.035 43.324H37.639V42.328H38.143C38.639 42.328 39.015 42.212 39.271 41.98C39.535 41.74 39.667 41.4 39.667 40.96C39.667 40.52 39.515 40.168 39.211 39.904C38.907 39.632 38.507 39.496 38.011 39.496C37.499 39.496 37.095 39.644 36.799 39.94C36.503 40.228 36.355 40.632 36.355 41.152C36.355 41.224 36.363 41.356 36.379 41.548L35.191 41.584C35.167 41.4 35.155 41.232 35.155 41.08C35.155 40.56 35.279 40.104 35.527 39.712C35.775 39.32 36.115 39.02 36.547 38.812C36.987 38.596 37.479 38.488 38.023 38.488ZM46.9466 38.584C47.6506 38.664 48.2786 38.892 48.8306 39.268C49.3906 39.636 49.8306 40.144 50.1506 40.792C50.4706 41.44 50.6306 42.204 50.6306 43.084C50.6306 44.044 50.4426 44.864 50.0666 45.544C49.6906 46.224 49.1786 46.74 48.5306 47.092C47.8826 47.444 47.1626 47.62 46.3706 47.62C45.5706 47.62 44.8426 47.444 44.1866 47.092C43.5386 46.74 43.0226 46.224 42.6386 45.544C42.2626 44.864 42.0746 44.044 42.0746 43.084C42.0746 42.204 42.2346 41.44 42.5546 40.792C42.8746 40.144 43.3146 39.636 43.8746 39.268C44.4346 38.892 45.0706 38.664 45.7826 38.584V37.12H46.9466V38.584ZM46.3706 46.6C46.9466 46.6 47.4666 46.468 47.9306 46.204C48.3946 45.94 48.7626 45.544 49.0346 45.016C49.3146 44.488 49.4546 43.844 49.4546 43.084C49.4546 42.028 49.2106 41.204 48.7226 40.612C48.2346 40.012 47.6026 39.664 46.8266 39.568C46.9066 39.872 46.9466 40.172 46.9466 40.468V43.24H45.7826V40.468C45.7826 40.172 45.8226 39.872 45.9026 39.568C45.1106 39.672 44.4706 40.02 43.9826 40.612C43.4946 41.204 43.2506 42.028 43.2506 43.084C43.2506 43.844 43.3866 44.488 43.6586 45.016C43.9386 45.544 44.3146 45.94 44.7866 46.204C45.2586 46.468 45.7866 46.6 46.3706 46.6ZM52.3565 44.5C52.1645 44.012 52.0165 43.536 51.9125 43.072C51.8165 42.608 51.7685 42.116 51.7685 41.596C51.7685 40.916 51.8765 40.344 52.0925 39.88C52.3165 39.408 52.6125 39.06 52.9805 38.836C53.3485 38.604 53.7565 38.488 54.2045 38.488C54.6605 38.488 55.0605 38.588 55.4045 38.788C55.7565 38.988 56.0165 39.308 56.1845 39.748C56.3605 39.292 56.6205 38.968 56.9645 38.776C57.3165 38.584 57.7165 38.488 58.1645 38.488C58.6125 38.488 59.0205 38.604 59.3885 38.836C59.7565 39.06 60.0485 39.408 60.2645 39.88C60.4885 40.344 60.6005 40.92 60.6005 41.608C60.6005 42.136 60.5485 42.628 60.4445 43.084C60.3405 43.532 60.1925 44.004 60.0005 44.5H58.8365C59.0365 43.98 59.1805 43.5 59.2685 43.06C59.3645 42.62 59.4125 42.144 59.4125 41.632C59.4125 40.928 59.2885 40.4 59.0405 40.048C58.7925 39.688 58.4645 39.508 58.0565 39.508C57.6565 39.508 57.3405 39.652 57.1085 39.94C56.8845 40.228 56.7725 40.676 56.7725 41.284V43.048H55.5965V41.284C55.5965 40.668 55.4805 40.22 55.2485 39.94C55.0245 39.652 54.7125 39.508 54.3125 39.508C53.9045 39.508 53.5725 39.684 53.3165 40.036C53.0685 40.388 52.9445 40.916 52.9445 41.62C52.9445 42.124 52.9885 42.6 53.0765 43.048C53.1725 43.488 53.3245 43.972 53.5325 44.5H52.3565ZM64.8107 44.62C64.2107 44.62 63.6867 44.492 63.2387 44.236C62.7907 43.98 62.4467 43.624 62.2067 43.168C61.9667 42.704 61.8467 42.172 61.8467 41.572C61.8467 40.964 61.9627 40.428 62.1947 39.964C62.4347 39.5 62.7667 39.14 63.1907 38.884C63.6227 38.62 64.1187 38.488 64.6787 38.488C65.1107 38.488 65.4987 38.572 65.8427 38.74C66.1867 38.908 66.4467 39.132 66.6227 39.412V37.816C66.6227 37.24 66.4547 36.804 66.1187 36.508C65.7907 36.204 65.3547 36.052 64.8107 36.052C64.2907 36.052 63.8667 36.196 63.5387 36.484C63.2187 36.764 63.0587 37.116 63.0587 37.54L61.8707 37.504C61.8707 37.04 61.9987 36.62 62.2547 36.244C62.5107 35.868 62.8627 35.576 63.3107 35.368C63.7587 35.16 64.2547 35.056 64.7987 35.056C65.3667 35.056 65.8787 35.172 66.3347 35.404C66.7907 35.628 67.1467 35.948 67.4027 36.364C67.6667 36.78 67.7987 37.264 67.7987 37.816V41.572C67.7987 42.172 67.6787 42.704 67.4387 43.168C67.1987 43.624 66.8507 43.98 66.3947 44.236C65.9467 44.492 65.4187 44.62 64.8107 44.62ZM64.8227 43.6C65.3587 43.6 65.7907 43.428 66.1187 43.084C66.4547 42.732 66.6227 42.28 66.6227 41.728V41.404C66.6227 40.812 66.4587 40.352 66.1307 40.024C65.8027 39.688 65.3667 39.52 64.8227 39.52C64.2787 39.52 63.8427 39.704 63.5147 40.072C63.1947 40.44 63.0347 40.94 63.0347 41.572C63.0347 42.188 63.1987 42.68 63.5267 43.048C63.8627 43.416 64.2947 43.6 64.8227 43.6ZM72.1868 38.62C72.1788 38.892 72.2468 39.124 72.3908 39.316C72.5348 39.508 72.7588 39.736 73.0628 40C73.3268 40.224 73.5388 40.428 73.6988 40.612C73.8668 40.796 74.0108 41.024 74.1308 41.296C74.2508 41.56 74.3108 41.872 74.3108 42.232C74.3108 42.728 74.1868 43.156 73.9388 43.516C73.6988 43.876 73.3708 44.152 72.9548 44.344C72.5468 44.528 72.0948 44.62 71.5988 44.62C71.0948 44.62 70.6348 44.516 70.2188 44.308C69.8108 44.1 69.4868 43.804 69.2468 43.42C69.0148 43.028 68.8988 42.58 68.8988 42.076C68.8988 41.836 68.9228 41.592 68.9708 41.344L70.1348 41.38C70.0948 41.604 70.0748 41.804 70.0748 41.98C70.0748 42.492 70.2148 42.896 70.4948 43.192C70.7748 43.48 71.1428 43.624 71.5988 43.624C72.0548 43.624 72.4228 43.5 72.7028 43.252C72.9908 43.004 73.1348 42.656 73.1348 42.208C73.1348 41.88 73.0508 41.608 72.8828 41.392C72.7228 41.176 72.4748 40.928 72.1388 40.648C71.8828 40.432 71.6748 40.244 71.5148 40.084C71.3628 39.916 71.2348 39.712 71.1308 39.472C71.0348 39.224 70.9948 38.94 71.0108 38.62H72.1868ZM80.263 38.584C80.967 38.664 81.595 38.892 82.147 39.268C82.707 39.636 83.147 40.144 83.467 40.792C83.787 41.44 83.947 42.204 83.947 43.084C83.947 44.044 83.759 44.864 83.383 45.544C83.007 46.224 82.495 46.74 81.847 47.092C81.199 47.444 80.479 47.62 79.687 47.62C78.887 47.62 78.159 47.444 77.503 47.092C76.855 46.74 76.339 46.224 75.955 45.544C75.579 44.864 75.391 44.044 75.391 43.084C75.391 42.204 75.551 41.44 75.871 40.792C76.191 40.144 76.631 39.636 77.191 39.268C77.751 38.892 78.387 38.664 79.099 38.584V37.12H80.263V38.584ZM79.687 46.6C80.263 46.6 80.783 46.468 81.247 46.204C81.711 45.94 82.079 45.544 82.351 45.016C82.631 44.488 82.771 43.844 82.771 43.084C82.771 42.028 82.527 41.204 82.039 40.612C81.551 40.012 80.919 39.664 80.143 39.568C80.223 39.872 80.263 40.172 80.263 40.468V43.24H79.099V40.468C79.099 40.172 79.139 39.872 79.219 39.568C78.427 39.672 77.787 40.02 77.299 40.612C76.811 41.204 76.567 42.028 76.567 43.084C76.567 43.844 76.703 44.488 76.975 45.016C77.255 45.544 77.631 45.94 78.103 46.204C78.575 46.468 79.103 46.6 79.687 46.6ZM85.6729 44.5C85.4809 44.012 85.3329 43.54 85.2289 43.084C85.1329 42.628 85.0849 42.144 85.0849 41.632C85.0849 40.976 85.2009 40.412 85.4329 39.94C85.6729 39.468 86.0049 39.108 86.4289 38.86C86.8529 38.612 87.3409 38.488 87.8929 38.488C88.4529 38.488 88.9449 38.612 89.3689 38.86C89.7929 39.108 90.1209 39.468 90.3529 39.94C90.5929 40.412 90.7129 40.976 90.7129 41.632C90.7129 42.136 90.6609 42.616 90.5569 43.072C90.4609 43.52 90.3169 43.996 90.1249 44.5H88.9609C89.1609 43.972 89.3049 43.492 89.3929 43.06C89.4809 42.628 89.5249 42.168 89.5249 41.68C89.5249 41 89.3809 40.472 89.0929 40.096C88.8049 39.712 88.4049 39.52 87.8929 39.52C87.3809 39.52 86.9809 39.712 86.6929 40.096C86.4049 40.472 86.2609 41 86.2609 41.68C86.2609 42.16 86.3049 42.62 86.3929 43.06C86.4889 43.5 86.6369 43.98 86.8369 44.5H85.6729ZM94.5077 38.5C95.0197 38.508 95.4717 38.612 95.8637 38.812C96.2637 39.012 96.5717 39.292 96.7877 39.652C97.0117 40.012 97.1237 40.424 97.1237 40.888C97.1237 41.336 97.0117 41.724 96.7877 42.052C96.5637 42.372 96.2517 42.6 95.8517 42.736C96.2517 42.84 96.5837 43.096 96.8477 43.504C97.1117 43.904 97.2437 44.388 97.2437 44.956C97.2437 45.476 97.1237 45.94 96.8837 46.348C96.6437 46.764 96.2957 47.088 95.8397 47.32C95.3917 47.56 94.8677 47.68 94.2677 47.68C93.6597 47.68 93.1277 47.556 92.6717 47.308C92.2157 47.068 91.8677 46.736 91.6277 46.312C91.3877 45.888 91.2677 45.404 91.2677 44.86C91.2677 44.604 91.2957 44.352 91.3517 44.104L92.5157 44.164C92.4677 44.364 92.4437 44.56 92.4437 44.752C92.4437 45.336 92.6077 45.796 92.9357 46.132C93.2637 46.476 93.7037 46.648 94.2557 46.648C94.7997 46.648 95.2357 46.488 95.5637 46.168C95.8917 45.856 96.0557 45.424 96.0557 44.872C96.0557 44.344 95.9037 43.932 95.5997 43.636C95.3037 43.34 94.8877 43.192 94.3517 43.192H93.9077V42.184H94.4597C94.9397 42.184 95.3037 42.072 95.5517 41.848C95.7997 41.616 95.9237 41.3 95.9237 40.9C95.9237 40.492 95.7877 40.164 95.5157 39.916C95.2517 39.66 94.8957 39.52 94.4477 39.496L94.5077 38.5ZM101.659 38.62C101.651 38.892 101.719 39.124 101.863 39.316C102.007 39.508 102.231 39.736 102.535 40C102.799 40.224 103.011 40.428 103.171 40.612C103.339 40.796 103.483 41.024 103.603 41.296C103.723 41.56 103.783 41.872 103.783 42.232C103.783 42.728 103.659 43.156 103.411 43.516C103.171 43.876 102.843 44.152 102.427 44.344C102.019 44.528 101.567 44.62 101.071 44.62C100.567 44.62 100.107 44.516 99.6915 44.308C99.2835 44.1 98.9595 43.804 98.7195 43.42C98.4875 43.028 98.3715 42.58 98.3715 42.076C98.3715 41.836 98.3955 41.592 98.4435 41.344L99.6075 41.38C99.5675 41.604 99.5475 41.804 99.5475 41.98C99.5475 42.492 99.6875 42.896 99.9675 43.192C100.247 43.48 100.615 43.624 101.071 43.624C101.527 43.624 101.895 43.5 102.175 43.252C102.463 43.004 102.607 42.656 102.607 42.208C102.607 41.88 102.523 41.608 102.355 41.392C102.195 41.176 101.947 40.928 101.611 40.648C101.355 40.432 101.147 40.244 100.987 40.084C100.835 39.916 100.707 39.712 100.603 39.472C100.507 39.224 100.467 38.94 100.483 38.62H101.659Z" fill="#1B1D25"/>
<circle cx="222" cy="41" r="6.3" stroke="#9CA2AA" stroke-width="1.4"/>
<circle cx="222" cy="41" r="1.3" stroke="#9CA2AA" stroke-width="1.4"/>
<path d="M223.5 41L227.5 39.5" stroke="#9CA2AA" stroke-width="1.4" stroke-linecap="round" stroke-linejoin="round"/>
<path d="M220.214 40.9998L216 40.2988" stroke="#9CA2AA" stroke-width="1.4" stroke-linecap="round" stroke-linejoin="round"/>
<path d="M222 42.5V47" stroke="#9CA2AA" stroke-width="1.4" stroke-linecap="round" stroke-linejoin="round"/>
<path d="M245.588 44.62C244.988 44.62 244.464 44.492 244.016 44.236C243.568 43.98 243.224 43.624 242.984 43.168C242.744 42.704 242.624 42.172 242.624 41.572C242.624 40.964 242.74 40.428 242.972 39.964C243.212 39.5 243.544 39.14 243.968 38.884C244.4 38.62 244.896 38.488 245.456 38.488C245.888 38.488 246.276 38.572 246.62 38.74C246.964 38.908 247.224 39.132 247.4 39.412V37.816C247.4 37.24 247.232 36.804 246.896 36.508C246.568 36.204 246.132 36.052 245.588 36.052C245.068 36.052 244.644 36.196 244.316 36.484C243.996 36.764 243.836 37.116 243.836 37.54L242.648 37.504C242.648 37.04 242.776 36.62 243.032 36.244C243.288 35.868 243.64 35.576 244.088 35.368C244.536 35.16 245.032 35.056 245.576 35.056C246.144 35.056 246.656 35.172 247.112 35.404C247.568 35.628 247.924 35.948 248.18 36.364C248.444 36.78 248.576 37.264 248.576 37.816V41.572C248.576 42.172 248.456 42.704 248.216 43.168C247.976 43.624 247.628 43.98 247.172 44.236C246.724 44.492 246.196 44.62 245.588 44.62ZM245.6 43.6C246.136 43.6 246.568 43.428 246.896 43.084C247.232 42.732 247.4 42.28 247.4 41.728V41.404C247.4 40.812 247.236 40.352 246.908 40.024C246.58 39.688 246.144 39.52 245.6 39.52C245.056 39.52 244.62 39.704 244.292 40.072C243.972 40.44 243.812 40.94 243.812 41.572C243.812 42.188 243.976 42.68 244.304 43.048C244.64 43.416 245.072 43.6 245.6 43.6ZM252.964 38.62C252.956 38.892 253.024 39.124 253.168 39.316C253.312 39.508 253.536 39.736 253.84 40C254.104 40.224 254.316 40.428 254.476 40.612C254.644 40.796 254.788 41.024 254.908 41.296C255.028 41.56 255.088 41.872 255.088 42.232C255.088 42.728 254.964 43.156 254.716 43.516C254.476 43.876 254.148 44.152 253.732 44.344C253.324 44.528 252.872 44.62 252.376 44.62C251.872 44.62 251.412 44.516 250.996 44.308C250.588 44.1 250.264 43.804 250.024 43.42C249.792 43.028 249.676 42.58 249.676 42.076C249.676 41.836 249.7 41.592 249.748 41.344L250.912 41.38C250.872 41.604 250.852 41.804 250.852 41.98C250.852 42.492 250.992 42.896 251.272 43.192C251.552 43.48 251.92 43.624 252.376 43.624C252.832 43.624 253.2 43.5 253.48 43.252C253.768 43.004 253.912 42.656 253.912 42.208C253.912 41.88 253.828 41.608 253.66 41.392C253.5 41.176 253.252 40.928 252.916 40.648C252.66 40.432 252.452 40.244 252.292 40.084C252.14 39.916 252.012 39.712 251.908 39.472C251.812 39.224 251.772 38.94 251.788 38.62H252.964ZM262.672 38.488C263.128 38.488 263.54 38.604 263.908 38.836C264.276 39.06 264.568 39.408 264.784 39.88C265.008 40.344 265.12 40.92 265.12 41.608C265.12 42.128 265.068 42.612 264.964 43.06C264.86 43.508 264.712 43.988 264.52 44.5H263.344C263.544 43.98 263.688 43.5 263.776 43.06C263.872 42.62 263.92 42.144 263.92 41.632C263.92 40.92 263.796 40.388 263.548 40.036C263.3 39.684 262.972 39.508 262.564 39.508C262.164 39.508 261.848 39.652 261.616 39.94C261.392 40.228 261.28 40.676 261.28 41.284V43.048H260.104V41.284C260.104 40.676 259.988 40.228 259.756 39.94C259.532 39.652 259.224 39.508 258.832 39.508C258.416 39.508 258.08 39.684 257.824 40.036C257.576 40.388 257.452 40.916 257.452 41.62C257.452 42.124 257.496 42.6 257.584 43.048C257.68 43.488 257.832 43.972 258.04 44.5H256.864C256.656 43.94 256.504 43.396 256.408 42.868C256.32 42.34 256.276 41.696 256.276 40.936C256.276 39.832 256.452 38.964 256.804 38.332C257.156 37.692 257.572 37.236 258.052 36.964C258.532 36.692 259.132 36.444 259.852 36.22C260.228 36.092 260.512 35.988 260.704 35.908C260.904 35.828 261.08 35.724 261.232 35.596C261.384 35.468 261.488 35.308 261.544 35.116L262.756 35.176C262.708 35.568 262.564 35.888 262.324 36.136C262.084 36.384 261.804 36.576 261.484 36.712C261.164 36.848 260.732 37 260.188 37.168C259.62 37.336 259.16 37.496 258.808 37.648C258.456 37.8 258.136 38.012 257.848 38.284C257.568 38.556 257.376 38.912 257.272 39.352C257.456 39.04 257.688 38.82 257.968 38.692C258.248 38.556 258.544 38.488 258.856 38.488C259.768 38.488 260.38 38.908 260.692 39.748C261.02 38.908 261.68 38.488 262.672 38.488ZM269.846 42.316C270.574 42.364 271.158 42.636 271.598 43.132C272.038 43.62 272.258 44.24 272.258 44.992C272.258 45.512 272.138 45.976 271.898 46.384C271.658 46.792 271.314 47.108 270.866 47.332C270.418 47.564 269.89 47.68 269.282 47.68C268.674 47.68 268.146 47.56 267.698 47.32C267.25 47.088 266.902 46.764 266.654 46.348C266.414 45.932 266.294 45.456 266.294 44.92C266.294 44.704 266.318 44.476 266.366 44.236L267.53 44.284C267.49 44.5 267.47 44.684 267.47 44.836C267.47 45.388 267.63 45.828 267.95 46.156C268.278 46.484 268.718 46.648 269.27 46.648C269.822 46.648 270.258 46.496 270.578 46.192C270.906 45.896 271.07 45.472 271.07 44.92C271.07 44.408 270.918 44.008 270.614 43.72C270.318 43.424 269.902 43.276 269.366 43.276H268.694V41.212C268.166 41.3 267.718 41.344 267.35 41.344C267.03 41.344 266.714 41.316 266.402 41.26L266.462 40.24C266.766 40.296 267.078 40.324 267.398 40.324C267.702 40.324 268.134 40.284 268.694 40.204V38.62H269.846V40.024C270.318 39.952 270.738 39.916 271.106 39.916C271.466 39.916 271.818 39.944 272.162 40L272.102 41.02C271.758 40.964 271.406 40.936 271.046 40.936C270.654 40.936 270.254 40.968 269.846 41.032V42.316ZM276.468 38.488C277.004 38.488 277.484 38.592 277.908 38.8C278.34 39.008 278.676 39.304 278.916 39.688C279.164 40.064 279.288 40.508 279.288 41.02C279.288 41.492 279.176 41.884 278.952 42.196C278.728 42.508 278.416 42.732 278.016 42.868C278.416 42.98 278.748 43.236 279.012 43.636C279.276 44.028 279.408 44.492 279.408 45.028C279.408 45.54 279.288 45.996 279.048 46.396C278.808 46.796 278.46 47.108 278.004 47.332C277.556 47.564 277.032 47.68 276.432 47.68C275.808 47.68 275.264 47.556 274.8 47.308C274.344 47.068 273.992 46.736 273.744 46.312C273.504 45.888 273.384 45.404 273.384 44.86C273.384 44.604 273.412 44.352 273.468 44.104L274.632 44.164C274.592 44.324 274.572 44.516 274.572 44.74C274.572 45.332 274.74 45.8 275.076 46.144C275.412 46.488 275.86 46.66 276.42 46.66C276.972 46.66 277.412 46.504 277.74 46.192C278.068 45.88 278.232 45.456 278.232 44.92C278.232 44.416 278.08 44.024 277.776 43.744C277.472 43.464 277.04 43.324 276.48 43.324H276.084V42.328H276.588C277.084 42.328 277.46 42.212 277.716 41.98C277.98 41.74 278.112 41.4 278.112 40.96C278.112 40.52 277.96 40.168 277.656 39.904C277.352 39.632 276.952 39.496 276.456 39.496C275.944 39.496 275.54 39.644 275.244 39.94C274.948 40.228 274.8 40.632 274.8 41.152C274.8 41.224 274.808 41.356 274.824 41.548L273.636 41.584C273.612 41.4 273.6 41.232 273.6 41.08C273.6 40.56 273.724 40.104 273.972 39.712C274.22 39.32 274.56 39.02 274.992 38.812C275.432 38.596 275.924 38.488 276.468 38.488ZM283.472 47.68C282.896 47.68 282.388 47.564 281.948 47.332C281.508 47.1 281.168 46.776 280.928 46.36C280.688 45.944 280.568 45.472 280.568 44.944C280.568 44.608 280.616 44.268 280.712 43.924L281.864 43.984C281.792 44.272 281.756 44.544 281.756 44.8C281.756 45.368 281.912 45.816 282.224 46.144C282.544 46.48 282.964 46.648 283.484 46.648C284.004 46.648 284.42 46.48 284.732 46.144C285.052 45.816 285.212 45.348 285.212 44.74V41.26C285.204 40.676 285.044 40.236 284.732 39.94C284.428 39.644 284.044 39.496 283.58 39.496C283.092 39.496 282.704 39.64 282.416 39.928C282.136 40.216 281.996 40.608 281.996 41.104C281.996 41.256 282.016 41.46 282.056 41.716L280.868 41.764C280.82 41.5 280.796 41.252 280.796 41.02C280.796 40.516 280.916 40.072 281.156 39.688C281.396 39.304 281.724 39.008 282.14 38.8C282.564 38.592 283.036 38.488 283.556 38.488C284.084 38.488 284.564 38.6 284.996 38.824C285.428 39.048 285.768 39.372 286.016 39.796C286.264 40.212 286.388 40.704 286.388 41.272V44.752C286.388 45.656 286.124 46.368 285.596 46.888C285.076 47.416 284.368 47.68 283.472 47.68ZM290.768 44.62C290.16 44.62 289.628 44.492 289.172 44.236C288.724 43.98 288.38 43.624 288.14 43.168C287.9 42.704 287.78 42.172 287.78 41.572V37.54C287.78 36.828 288.016 36.256 288.488 35.824C288.968 35.392 289.612 35.176 290.42 35.176H293.336V36.196H290.48C289.992 36.196 289.616 36.312 289.352 36.544C289.088 36.768 288.956 37.104 288.956 37.552V39.412C289.132 39.132 289.392 38.908 289.736 38.74C290.08 38.572 290.468 38.488 290.9 38.488C291.46 38.488 291.952 38.62 292.376 38.884C292.808 39.14 293.14 39.5 293.372 39.964C293.612 40.428 293.732 40.964 293.732 41.572C293.732 42.172 293.612 42.704 293.372 43.168C293.132 43.624 292.788 43.98 292.34 44.236C291.892 44.492 291.368 44.62 290.768 44.62ZM290.756 43.6C291.284 43.6 291.712 43.416 292.04 43.048C292.376 42.68 292.544 42.188 292.544 41.572C292.544 40.94 292.38 40.44 292.052 40.072C291.732 39.704 291.3 39.52 290.756 39.52C290.212 39.52 289.776 39.688 289.448 40.024C289.12 40.352 288.956 40.812 288.956 41.404V41.728C288.956 42.28 289.12 42.732 289.448 43.084C289.784 43.428 290.22 43.6 290.756 43.6ZM298.163 38.62C298.155 38.892 298.223 39.124 298.367 39.316C298.511 39.508 298.735 39.736 299.039 40C299.303 40.224 299.515 40.428 299.675 40.612C299.843 40.796 299.987 41.024 300.107 41.296C300.227 41.56 300.287 41.872 300.287 42.232C300.287 42.728 300.163 43.156 299.915 43.516C299.675 43.876 299.347 44.152 298.931 44.344C298.523 44.528 298.071 44.62 297.575 44.62C297.071 44.62 296.611 44.516 296.195 44.308C295.787 44.1 295.463 43.804 295.223 43.42C294.991 43.028 294.875 42.58 294.875 42.076C294.875 41.836 294.899 41.592 294.947 41.344L296.111 41.38C296.071 41.604 296.051 41.804 296.051 41.98C296.051 42.492 296.191 42.896 296.471 43.192C296.751 43.48 297.119 43.624 297.575 43.624C298.031 43.624 298.399 43.5 298.679 43.252C298.967 43.004 299.111 42.656 299.111 42.208C299.111 41.88 299.027 41.608 298.859 41.392C298.699 41.176 298.451 40.928 298.115 40.648C297.859 40.432 297.651 40.244 297.491 40.084C297.339 39.916 297.211 39.712 297.107 39.472C297.011 39.224 296.971 38.94 296.987 38.62H298.163Z" fill="#1B1D25"/>
</svg>
