<svg width="134" height="15" viewBox="0 0 134 15" fill="none" xmlns="http://www.w3.org/2000/svg">
<path d="M5.64 4.536H2.208L1.752 6.984L1.776 7.008C1.96 6.808 2.184 6.656 2.448 6.552C2.72 6.448 3.024 6.396 3.36 6.396C3.904 6.396 4.384 6.516 4.8 6.756C5.216 6.988 5.536 7.324 5.76 7.764C5.992 8.196 6.108 8.708 6.108 9.3C6.108 9.844 5.984 10.332 5.736 10.764C5.488 11.196 5.136 11.536 4.68 11.784C4.232 12.024 3.716 12.144 3.132 12.144C2.636 12.144 2.184 12.048 1.776 11.856C1.368 11.656 1.044 11.372 0.804 11.004C0.564 10.636 0.436 10.208 0.42 9.72V9.708H1.44C1.456 10.004 1.544 10.268 1.704 10.5C1.864 10.732 2.076 10.916 2.34 11.052C2.604 11.18 2.9 11.244 3.228 11.244C3.572 11.244 3.88 11.164 4.152 11.004C4.432 10.836 4.648 10.6 4.8 10.296C4.952 9.992 5.028 9.636 5.028 9.228C5.028 8.852 4.944 8.52 4.776 8.232C4.608 7.936 4.376 7.708 4.08 7.548C3.784 7.38 3.46 7.296 3.108 7.296C2.804 7.296 2.52 7.364 2.256 7.5C2 7.628 1.756 7.828 1.524 8.1L0.648 8.052L1.44 3.636H5.64V4.536ZM9.94397 3.492C10.472 3.492 10.928 3.584 11.312 3.768C11.704 3.944 12.004 4.196 12.212 4.524C12.42 4.852 12.524 5.232 12.524 5.664C12.524 6.032 12.42 6.372 12.212 6.684C12.012 6.996 11.724 7.244 11.348 7.428C11.844 7.58 12.22 7.836 12.476 8.196C12.732 8.556 12.86 9.008 12.86 9.552C12.86 10.064 12.74 10.516 12.5 10.908C12.26 11.3 11.924 11.604 11.492 11.82C11.068 12.036 10.584 12.144 10.04 12.144C9.46397 12.144 8.95597 12.04 8.51597 11.832C8.08397 11.624 7.74797 11.328 7.50797 10.944C7.26797 10.552 7.14797 10.088 7.14797 9.552C7.14797 9.04 7.27597 8.6 7.53197 8.232C7.79597 7.856 8.16397 7.588 8.63597 7.428C8.26797 7.276 7.97597 7.04 7.75997 6.72C7.55197 6.4 7.44797 6.048 7.44797 5.664C7.44797 5.24 7.55597 4.864 7.77197 4.536C7.99597 4.208 8.29597 3.952 8.67197 3.768C9.05597 3.584 9.47997 3.492 9.94397 3.492ZM8.52797 5.7C8.52797 5.964 8.58797 6.2 8.70797 6.408C8.83597 6.616 9.01197 6.78 9.23597 6.9C9.46797 7.012 9.73597 7.068 10.04 7.068C10.32 7.068 10.564 7.012 10.772 6.9C10.988 6.788 11.152 6.628 11.264 6.42C11.384 6.212 11.444 5.972 11.444 5.7C11.444 5.284 11.316 4.964 11.06 4.74C10.804 4.508 10.452 4.392 10.004 4.392C9.71597 4.392 9.45997 4.448 9.23597 4.56C9.01197 4.672 8.83597 4.828 8.70797 5.028C8.58797 5.22 8.52797 5.444 8.52797 5.7ZM8.22797 9.6C8.22797 9.928 8.30397 10.216 8.45597 10.464C8.60797 10.712 8.81997 10.904 9.09197 11.04C9.37197 11.176 9.68797 11.244 10.04 11.244C10.368 11.244 10.664 11.176 10.928 11.04C11.192 10.896 11.4 10.7 11.552 10.452C11.704 10.196 11.78 9.908 11.78 9.588C11.78 9.292 11.7 9.02 11.54 8.772C11.38 8.524 11.164 8.328 10.892 8.184C10.62 8.04 10.328 7.968 10.016 7.968C9.68797 7.968 9.38797 8.036 9.11597 8.172C8.84397 8.308 8.62797 8.5 8.46797 8.748C8.30797 8.996 8.22797 9.28 8.22797 9.6ZM16.5399 3.492C17.5239 3.492 18.2559 3.828 18.7359 4.5C19.2159 5.172 19.4559 6.192 19.4559 7.56C19.4559 9.12 19.2119 10.276 18.7239 11.028C18.2359 11.772 17.4959 12.144 16.5039 12.144C15.7599 12.144 15.1639 11.956 14.7159 11.58C14.2679 11.204 14.0039 10.66 13.9239 9.948H14.9439C14.9999 10.356 15.1679 10.676 15.4479 10.908C15.7279 11.132 16.0799 11.244 16.5039 11.244C17.1279 11.244 17.5919 10.976 17.8959 10.44C18.2079 9.904 18.3839 9.076 18.4239 7.956L18.3999 7.932C18.1999 8.3 17.9239 8.588 17.5719 8.796C17.2279 9.004 16.8439 9.108 16.4199 9.108C15.8679 9.108 15.3919 8.992 14.9919 8.76C14.5919 8.528 14.2839 8.2 14.0679 7.776C13.8519 7.344 13.7439 6.84 13.7439 6.264C13.7439 5.728 13.8599 5.252 14.0919 4.836C14.3319 4.412 14.6639 4.084 15.0879 3.852C15.5119 3.612 15.9959 3.492 16.5399 3.492ZM14.8239 6.408C14.8239 6.72 14.8999 7.016 15.0519 7.296C15.2039 7.576 15.4079 7.8 15.6639 7.968C15.9199 8.128 16.1999 8.208 16.5039 8.208C16.8399 8.208 17.1399 8.124 17.4039 7.956C17.6679 7.788 17.8719 7.564 18.0159 7.284C18.1679 6.996 18.2439 6.68 18.2439 6.336C18.2439 5.968 18.1759 5.64 18.0399 5.352C17.9039 5.056 17.6999 4.824 17.4279 4.656C17.1639 4.48 16.8479 4.392 16.4799 4.392C16.1439 4.392 15.8479 4.476 15.5919 4.644C15.3439 4.804 15.1519 5.036 15.0159 5.34C14.8879 5.644 14.8239 6 14.8239 6.408ZM26.8958 12.144C26.2958 12.144 25.7798 12.016 25.3478 11.76C24.9238 11.496 24.5958 11.124 24.3638 10.644C24.1398 10.164 24.0278 9.6 24.0278 8.952V5.232C24.0278 4.472 24.2398 3.912 24.6638 3.552C25.0878 3.184 25.7238 3 26.5718 3H29.0918V3.888H26.6318C26.1038 3.888 25.7118 3.992 25.4558 4.2C25.1998 4.4 25.0718 4.748 25.0718 5.244V6.78H25.0958C25.2878 6.508 25.5478 6.288 25.8758 6.12C26.2038 5.952 26.5878 5.868 27.0278 5.868C27.5318 5.868 27.9918 5.996 28.4078 6.252C28.8238 6.5 29.1518 6.86 29.3918 7.332C29.6398 7.796 29.7638 8.336 29.7638 8.952C29.7638 9.6 29.6478 10.164 29.4158 10.644C29.1918 11.124 28.8638 11.496 28.4318 11.76C27.9998 12.016 27.4878 12.144 26.8958 12.144ZM26.8958 11.244C27.2638 11.244 27.5798 11.148 27.8438 10.956C28.1158 10.764 28.3198 10.5 28.4558 10.164C28.5998 9.828 28.6718 9.444 28.6718 9.012C28.6718 8.564 28.6038 8.172 28.4678 7.836C28.3318 7.5 28.1318 7.24 27.8678 7.056C27.6038 6.864 27.2798 6.768 26.8958 6.768C26.3038 6.768 25.8438 6.96 25.5158 7.344C25.1958 7.728 25.0358 8.284 25.0358 9.012C25.0358 9.444 25.1078 9.828 25.2518 10.164C25.4038 10.5 25.6198 10.764 25.8998 10.956C26.1878 11.148 26.5198 11.244 26.8958 11.244ZM33.3535 12.144C32.7855 12.144 32.3055 12.036 31.9135 11.82C31.5215 11.604 31.2255 11.312 31.0255 10.944C30.8255 10.568 30.7255 10.144 30.7255 9.672C30.7255 9.336 30.7855 9 30.9055 8.664H31.9615C31.8575 8.976 31.8055 9.272 31.8055 9.552C31.8055 9.872 31.8615 10.16 31.9735 10.416C32.0855 10.672 32.2575 10.876 32.4895 11.028C32.7295 11.172 33.0175 11.244 33.3535 11.244C33.6895 11.244 33.9735 11.172 34.2055 11.028C34.4375 10.876 34.6095 10.68 34.7215 10.44C34.8415 10.192 34.9015 9.924 34.9015 9.636C34.9015 9.348 34.8495 9.092 34.7455 8.868C34.6415 8.644 34.5095 8.452 34.3495 8.292C34.1975 8.132 33.9935 7.944 33.7375 7.728C33.4735 7.504 33.2695 7.316 33.1255 7.164C32.9815 7.004 32.8575 6.816 32.7535 6.6C32.6495 6.384 32.5975 6.136 32.5975 5.856H33.7015C33.7255 6.04 33.7815 6.212 33.8695 6.372C33.9655 6.524 34.0735 6.664 34.1935 6.792C34.3215 6.912 34.4855 7.056 34.6855 7.224C34.9655 7.472 35.1895 7.692 35.3575 7.884C35.5335 8.076 35.6815 8.316 35.8015 8.604C35.9215 8.892 35.9815 9.232 35.9815 9.624C35.9815 10.064 35.8775 10.476 35.6695 10.86C35.4615 11.244 35.1575 11.556 34.7575 11.796C34.3655 12.028 33.8975 12.144 33.3535 12.144ZM40.0085 12.144C39.4085 12.144 38.8965 12.016 38.4725 11.76C38.0485 11.496 37.7245 11.128 37.5005 10.656C37.2765 10.176 37.1645 9.612 37.1645 8.964V3H38.2085V6.768H38.2325C38.4565 6.472 38.7245 6.248 39.0365 6.096C39.3565 5.936 39.7405 5.856 40.1885 5.856C40.6925 5.856 41.1485 5.984 41.5565 6.24C41.9645 6.496 42.2845 6.86 42.5165 7.332C42.7565 7.804 42.8765 8.348 42.8765 8.964C42.8765 9.612 42.7605 10.176 42.5285 10.656C42.3045 11.128 41.9765 11.496 41.5445 11.76C41.1205 12.016 40.6085 12.144 40.0085 12.144ZM40.0085 11.244C40.3845 11.244 40.7045 11.152 40.9685 10.968C41.2405 10.776 41.4445 10.512 41.5805 10.176C41.7245 9.84 41.7965 9.456 41.7965 9.024C41.7965 8.576 41.7285 8.184 41.5925 7.848C41.4565 7.504 41.2525 7.236 40.9805 7.044C40.7085 6.852 40.3845 6.756 40.0085 6.756C39.4245 6.756 38.9725 6.952 38.6525 7.344C38.3325 7.736 38.1725 8.296 38.1725 9.024C38.1725 9.456 38.2445 9.84 38.3885 10.176C38.5405 10.512 38.7525 10.776 39.0245 10.968C39.3045 11.152 39.6325 11.244 40.0085 11.244ZM46.6348 14.544C46.0668 14.544 45.5668 14.432 45.1348 14.208C44.7108 13.992 44.3828 13.696 44.1508 13.32C43.9188 12.944 43.8028 12.532 43.8028 12.084C43.8028 11.884 43.8228 11.692 43.8628 11.508C43.9028 11.324 43.9628 11.128 44.0428 10.92H45.0868C45.0228 11.088 44.9708 11.264 44.9308 11.448C44.8988 11.632 44.8828 11.804 44.8828 11.964C44.8828 12.284 44.9508 12.572 45.0868 12.828C45.2308 13.084 45.4348 13.284 45.6988 13.428C45.9628 13.572 46.2748 13.644 46.6348 13.644C46.9708 13.644 47.2628 13.572 47.5108 13.428C47.7668 13.284 47.9588 13.084 48.0868 12.828C48.2228 12.58 48.2908 12.296 48.2908 11.976C48.2908 11.616 48.2268 11.308 48.0988 11.052C47.9788 10.796 47.8028 10.604 47.5708 10.476C47.3468 10.34 47.0828 10.272 46.7788 10.272H46.2028V9.384H46.7788C47.1868 9.384 47.4948 9.268 47.7028 9.036C47.9108 8.796 48.0148 8.492 48.0148 8.124C48.0148 7.884 47.9668 7.66 47.8708 7.452C47.7748 7.244 47.6228 7.076 47.4148 6.948C47.2068 6.82 46.9468 6.756 46.6348 6.756C46.1308 6.756 45.7548 6.892 45.5068 7.164C45.2668 7.428 45.1468 7.772 45.1468 8.196C45.1468 8.38 45.1628 8.524 45.1948 8.628H44.1268C44.0868 8.492 44.0668 8.332 44.0668 8.148C44.0668 7.732 44.1668 7.352 44.3668 7.008C44.5748 6.656 44.8708 6.376 45.2548 6.168C45.6468 5.96 46.1068 5.856 46.6348 5.856C47.1548 5.856 47.5988 5.96 47.9668 6.168C48.3428 6.368 48.6268 6.632 48.8188 6.96C49.0108 7.288 49.1068 7.636 49.1068 8.004C49.1068 8.468 49.0068 8.856 48.8068 9.168C48.6068 9.472 48.3308 9.684 47.9788 9.804V9.852C48.3868 9.988 48.7188 10.232 48.9748 10.584C49.2388 10.928 49.3708 11.4 49.3708 12C49.3708 12.448 49.2588 12.864 49.0348 13.248C48.8188 13.64 48.5028 13.952 48.0868 14.184C47.6708 14.424 47.1868 14.544 46.6348 14.544ZM52.877 12.144C52.309 12.144 51.829 12.036 51.437 11.82C51.045 11.604 50.749 11.312 50.549 10.944C50.349 10.568 50.249 10.144 50.249 9.672C50.249 9.336 50.309 9 50.429 8.664H51.485C51.381 8.976 51.329 9.272 51.329 9.552C51.329 9.872 51.385 10.16 51.497 10.416C51.609 10.672 51.781 10.876 52.013 11.028C52.253 11.172 52.541 11.244 52.877 11.244C53.213 11.244 53.497 11.172 53.729 11.028C53.961 10.876 54.133 10.68 54.245 10.44C54.365 10.192 54.425 9.924 54.425 9.636C54.425 9.348 54.373 9.092 54.269 8.868C54.165 8.644 54.033 8.452 53.873 8.292C53.721 8.132 53.517 7.944 53.261 7.728C52.997 7.504 52.793 7.316 52.649 7.164C52.505 7.004 52.381 6.816 52.277 6.6C52.173 6.384 52.121 6.136 52.121 5.856H53.225C53.249 6.04 53.305 6.212 53.393 6.372C53.489 6.524 53.597 6.664 53.717 6.792C53.845 6.912 54.009 7.056 54.209 7.224C54.489 7.472 54.713 7.692 54.881 7.884C55.057 8.076 55.205 8.316 55.325 8.604C55.445 8.892 55.505 9.232 55.505 9.624C55.505 10.064 55.401 10.476 55.193 10.86C54.985 11.244 54.681 11.556 54.281 11.796C53.889 12.028 53.421 12.144 52.877 12.144Z" fill="#6F7383"/>
<circle cx="62.5" cy="7" r="1.5" fill="#8C929B"/>
<path d="M71.264 3.492C71.784 3.492 72.244 3.592 72.644 3.792C73.052 3.992 73.368 4.276 73.592 4.644C73.816 5.012 73.928 5.444 73.928 5.94C73.928 6.524 73.764 7.052 73.436 7.524C73.116 7.996 72.42 8.54 71.348 9.156C70.916 9.404 70.568 9.636 70.304 9.852C70.048 10.06 69.856 10.264 69.728 10.464C69.6 10.656 69.516 10.868 69.476 11.1H73.844V12H68.288C68.344 11.304 68.524 10.684 68.828 10.14C69.132 9.62 69.708 9.104 70.556 8.592C71.036 8.304 71.436 8.04 71.756 7.8C72.076 7.56 72.304 7.352 72.44 7.176C72.712 6.832 72.848 6.42 72.848 5.94C72.848 5.644 72.776 5.38 72.632 5.148C72.488 4.908 72.288 4.724 72.032 4.596C71.784 4.46 71.508 4.392 71.204 4.392C70.86 4.392 70.564 4.48 70.316 4.656C70.068 4.832 69.876 5.072 69.74 5.376C69.612 5.68 69.548 6.028 69.548 6.42V6.504H68.528L68.516 6.288C68.516 5.736 68.628 5.248 68.852 4.824C69.084 4.4 69.404 4.072 69.812 3.84C70.228 3.608 70.712 3.492 71.264 3.492ZM83.6478 14.4C83.6318 14.144 83.5238 13.92 83.3238 13.728C83.1318 13.544 82.8598 13.4 82.5078 13.296C82.1638 13.192 81.7638 13.14 81.3078 13.14H79.3998V12.348H80.5998V12.3C80.1678 12.164 79.7918 11.936 79.4718 11.616C79.1598 11.296 78.9198 10.908 78.7518 10.452C78.5918 9.988 78.5118 9.48 78.5118 8.928C78.5118 8.296 78.6038 7.748 78.7878 7.284C78.9718 6.82 79.2318 6.468 79.5678 6.228C79.9038 5.98 80.3038 5.856 80.7678 5.856C81.2158 5.856 81.5958 5.964 81.9078 6.18C82.2278 6.388 82.4518 6.708 82.5798 7.14H82.6278C82.8278 6.708 83.1158 6.388 83.4918 6.18C83.8678 5.964 84.3118 5.856 84.8238 5.856C85.3358 5.856 85.7918 5.988 86.1918 6.252C86.5998 6.508 86.9158 6.868 87.1398 7.332C87.3638 7.788 87.4758 8.308 87.4758 8.892C87.4758 9.468 87.3638 9.988 87.1398 10.452C86.9158 10.908 86.5958 11.268 86.1798 11.532C85.7638 11.788 85.2798 11.916 84.7278 11.916C84.1758 11.916 83.6918 11.788 83.2758 11.532C82.8678 11.276 82.5518 10.92 82.3278 10.464C82.1118 10.008 82.0038 9.484 82.0038 8.892V8.148C82.0038 7.868 81.9558 7.624 81.8598 7.416C81.7718 7.2 81.6398 7.032 81.4638 6.912C81.2878 6.792 81.0838 6.732 80.8518 6.732C80.4358 6.732 80.1198 6.92 79.9038 7.296C79.6958 7.672 79.5918 8.216 79.5918 8.928C79.5918 9.56 79.7158 10.116 79.9638 10.596C80.2118 11.068 80.5358 11.448 80.9358 11.736C81.3358 12.024 81.7678 12.22 82.2318 12.324C83.0318 12.508 83.6398 12.756 84.0558 13.068C84.4718 13.388 84.6838 13.832 84.6918 14.4H83.6478ZM84.7278 11.04C85.0878 11.04 85.3918 10.94 85.6398 10.74C85.8958 10.54 86.0878 10.276 86.2158 9.948C86.3438 9.62 86.4078 9.268 86.4078 8.892C86.4078 8.5 86.3438 8.14 86.2158 7.812C86.0958 7.484 85.9078 7.224 85.6518 7.032C85.3958 6.832 85.0838 6.732 84.7158 6.732C84.3638 6.732 84.0638 6.828 83.8158 7.02C83.5678 7.212 83.3798 7.472 83.2518 7.8C83.1238 8.128 83.0598 8.492 83.0598 8.892C83.0598 9.268 83.1198 9.62 83.2398 9.948C83.3678 10.276 83.5558 10.54 83.8038 10.74C84.0598 10.94 84.3678 11.04 84.7278 11.04ZM93.5245 14.4C93.5165 14.144 93.4205 13.92 93.2365 13.728C93.0525 13.544 92.7925 13.4 92.4565 13.296C92.1205 13.192 91.7245 13.14 91.2685 13.14H89.3605V12.348H90.5605V12.3C90.1285 12.164 89.7565 11.936 89.4445 11.616C89.1325 11.296 88.8925 10.908 88.7245 10.452C88.5645 9.988 88.4845 9.48 88.4845 8.928C88.4845 8.288 88.5685 7.74 88.7365 7.284C88.9125 6.82 89.1645 6.468 89.4925 6.228C89.8205 5.98 90.2165 5.856 90.6805 5.856C91.1045 5.856 91.4485 5.956 91.7125 6.156C91.9845 6.348 92.1925 6.66 92.3365 7.092H92.3845C92.5285 6.676 92.7485 6.368 93.0445 6.168C93.3485 5.96 93.7005 5.856 94.1005 5.856C94.5645 5.856 94.9605 5.984 95.2885 6.24C95.6245 6.496 95.8765 6.852 96.0445 7.308C96.2205 7.764 96.3085 8.292 96.3085 8.892C96.3085 9.396 96.2645 9.86 96.1765 10.284C96.0885 10.7 95.9485 11.1 95.7565 11.484H94.6285C95.0285 10.708 95.2285 9.86 95.2285 8.94C95.2285 8.22 95.1165 7.676 94.8925 7.308C94.6765 6.94 94.3605 6.756 93.9445 6.756C93.6245 6.756 93.3725 6.888 93.1885 7.152C93.0045 7.416 92.9125 7.76 92.9125 8.184V10.356H91.8445V8.184C91.8445 7.736 91.7525 7.388 91.5685 7.14C91.3925 6.884 91.1445 6.756 90.8245 6.756C90.4005 6.756 90.0805 6.944 89.8645 7.32C89.6565 7.696 89.5525 8.232 89.5525 8.928C89.5525 9.56 89.6765 10.116 89.9245 10.596C90.1725 11.068 90.4965 11.448 90.8965 11.736C91.2965 12.024 91.7285 12.22 92.1925 12.324C92.9765 12.5 93.5685 12.748 93.9685 13.068C94.3685 13.396 94.5725 13.84 94.5805 14.4H93.5245ZM100.908 12C101.164 11.504 101.356 11.024 101.484 10.56C101.612 10.096 101.676 9.568 101.676 8.976C101.676 8.328 101.54 7.796 101.268 7.38C101.004 6.964 100.596 6.756 100.044 6.756C99.4924 6.756 99.0804 6.964 98.8084 7.38C98.5364 7.796 98.4004 8.328 98.4004 8.976C98.4004 9.56 98.4644 10.084 98.5924 10.548C98.7204 11.012 98.9124 11.496 99.1684 12H98.1004C97.8444 11.544 97.6484 11.08 97.5124 10.608C97.3844 10.128 97.3204 9.584 97.3204 8.976C97.3204 8.328 97.4324 7.772 97.6564 7.308C97.8804 6.836 98.1964 6.476 98.6044 6.228C99.0204 5.98 99.5004 5.856 100.044 5.856C100.588 5.856 101.064 5.98 101.472 6.228C101.888 6.476 102.208 6.836 102.432 7.308C102.656 7.772 102.768 8.328 102.768 8.976C102.768 9.584 102.7 10.124 102.564 10.596C102.428 11.068 102.232 11.536 101.976 12H100.908ZM106.669 12.144C106.101 12.144 105.613 12.032 105.205 11.808C104.805 11.584 104.497 11.26 104.281 10.836C104.065 10.404 103.957 9.892 103.957 9.3V3H105.001V9.24C105.001 9.632 105.065 9.98 105.193 10.284C105.321 10.588 105.509 10.824 105.757 10.992C106.005 11.16 106.309 11.244 106.669 11.244C107.029 11.244 107.333 11.168 107.581 11.016C107.829 10.856 108.013 10.648 108.133 10.392C108.261 10.136 108.325 9.852 108.325 9.54C108.325 9.212 108.273 8.932 108.169 8.7C108.073 8.468 107.929 8.236 107.737 8.004L107.557 7.788C107.389 7.596 107.257 7.428 107.161 7.284C107.065 7.14 106.977 6.964 106.897 6.756C106.825 6.54 106.785 6.288 106.777 6H107.857C107.865 6.208 107.901 6.396 107.965 6.564C108.037 6.724 108.117 6.864 108.205 6.984C108.301 7.104 108.433 7.264 108.601 7.464C108.857 7.768 109.057 8.084 109.201 8.412C109.345 8.732 109.417 9.144 109.417 9.648C109.417 10.104 109.297 10.524 109.057 10.908C108.825 11.284 108.497 11.584 108.073 11.808C107.657 12.032 107.189 12.144 106.669 12.144ZM118.982 2.856C119.086 2.856 119.21 2.868 119.354 2.892C119.498 2.908 119.606 2.928 119.678 2.952V3.84C119.606 3.816 119.506 3.796 119.378 3.78C119.25 3.764 119.138 3.756 119.042 3.756C118.722 3.756 118.47 3.832 118.286 3.984C118.11 4.128 118.022 4.34 118.022 4.62V5.052H116.954V4.644C116.954 4.38 116.866 4.16 116.69 3.984C116.522 3.808 116.286 3.72 115.982 3.72C115.67 3.72 115.426 3.836 115.25 4.068C115.082 4.3 114.998 4.628 114.998 5.052V6.852H115.022C115.278 6.548 115.558 6.324 115.862 6.18C116.174 6.028 116.55 5.952 116.99 5.952C117.494 5.952 117.95 6.076 118.358 6.324C118.774 6.564 119.098 6.916 119.33 7.38C119.57 7.836 119.69 8.372 119.69 8.988C119.69 9.636 119.574 10.196 119.342 10.668C119.118 11.14 118.79 11.504 118.358 11.76C117.926 12.016 117.41 12.144 116.81 12.144C116.218 12.144 115.702 12.016 115.262 11.76C114.83 11.504 114.498 11.14 114.266 10.668C114.034 10.196 113.918 9.636 113.918 8.988V5.124C113.918 4.628 113.998 4.212 114.158 3.876C114.326 3.532 114.55 3.276 114.83 3.108C115.118 2.94 115.442 2.856 115.802 2.856C116.194 2.856 116.53 2.94 116.81 3.108C117.09 3.268 117.298 3.512 117.434 3.84H117.482C117.586 3.528 117.758 3.288 117.998 3.12C118.246 2.944 118.574 2.856 118.982 2.856ZM116.81 11.244C117.186 11.244 117.506 11.152 117.77 10.968C118.042 10.784 118.246 10.528 118.382 10.2C118.526 9.864 118.598 9.48 118.598 9.048C118.598 8.624 118.53 8.248 118.394 7.92C118.258 7.584 118.058 7.324 117.794 7.14C117.53 6.948 117.206 6.852 116.822 6.852C116.238 6.852 115.782 7.044 115.454 7.428C115.126 7.804 114.962 8.344 114.962 9.048C114.962 9.48 115.034 9.864 115.178 10.2C115.33 10.528 115.542 10.784 115.814 10.968C116.094 11.152 116.426 11.244 116.81 11.244ZM124.287 12C124.543 11.504 124.735 11.024 124.863 10.56C124.991 10.096 125.055 9.568 125.055 8.976C125.055 8.328 124.919 7.796 124.647 7.38C124.383 6.964 123.975 6.756 123.423 6.756C122.871 6.756 122.459 6.964 122.187 7.38C121.915 7.796 121.779 8.328 121.779 8.976C121.779 9.56 121.843 10.084 121.971 10.548C122.099 11.012 122.291 11.496 122.547 12H121.479C121.223 11.544 121.027 11.08 120.891 10.608C120.763 10.128 120.699 9.584 120.699 8.976C120.699 8.328 120.811 7.772 121.035 7.308C121.259 6.836 121.575 6.476 121.983 6.228C122.399 5.98 122.879 5.856 123.423 5.856C123.967 5.856 124.443 5.98 124.851 6.228C125.267 6.476 125.587 6.836 125.811 7.308C126.035 7.772 126.147 8.328 126.147 8.976C126.147 9.584 126.079 10.124 125.943 10.596C125.807 11.068 125.611 11.536 125.355 12H124.287ZM130.204 12.144C129.604 12.144 129.088 12.016 128.656 11.76C128.232 11.496 127.904 11.124 127.672 10.644C127.448 10.164 127.336 9.6 127.336 8.952V5.232C127.336 4.472 127.548 3.912 127.972 3.552C128.396 3.184 129.032 3 129.88 3H132.4V3.888H129.94C129.412 3.888 129.02 3.992 128.764 4.2C128.508 4.4 128.38 4.748 128.38 5.244V6.78H128.404C128.596 6.508 128.856 6.288 129.184 6.12C129.512 5.952 129.896 5.868 130.336 5.868C130.84 5.868 131.3 5.996 131.716 6.252C132.132 6.5 132.46 6.86 132.7 7.332C132.948 7.796 133.072 8.336 133.072 8.952C133.072 9.6 132.956 10.164 132.724 10.644C132.5 11.124 132.172 11.496 131.74 11.76C131.308 12.016 130.796 12.144 130.204 12.144ZM130.204 11.244C130.572 11.244 130.888 11.148 131.152 10.956C131.424 10.764 131.628 10.5 131.764 10.164C131.908 9.828 131.98 9.444 131.98 9.012C131.98 8.564 131.912 8.172 131.776 7.836C131.64 7.5 131.44 7.24 131.176 7.056C130.912 6.864 130.588 6.768 130.204 6.768C129.612 6.768 129.152 6.96 128.824 7.344C128.504 7.728 128.344 8.284 128.344 9.012C128.344 9.444 128.416 9.828 128.56 10.164C128.712 10.5 128.928 10.764 129.208 10.956C129.496 11.148 129.828 11.244 130.204 11.244Z" fill="#6F7383"/>
</svg>
